<?xml version="1.0" encoding="UTF-8"?><svg xmlns="http://www.w3.org/2000/svg" xmlns:xlink="http://www.w3.org/1999/xlink" fill-opacity="1" color-rendering="auto" color-interpolation="auto" text-rendering="auto" stroke="black" stroke-linecap="square" width="270" stroke-miterlimit="10" shape-rendering="auto" stroke-opacity="1" fill="black" stroke-dasharray="none" font-weight="normal" stroke-width="1" height="1204" font-family="'Dialog'" font-style="normal" stroke-linejoin="miter" font-size="12px" stroke-dashoffset="0" image-rendering="auto">
  <!--Generated by ySVG 2.5-->
  <defs id="genericDefs"/>
  <g>
    <defs id="defs1">
      <linearGradient x1="60.7016" gradientUnits="userSpaceOnUse" x2="140.7016" y1="0" y2="40" id="linearGradient1" spreadMethod="reflect">
        <stop stop-opacity="1" stop-color="rgb(232,238,247)" offset="0%"/>
        <stop stop-opacity="1" stop-color="rgb(183,201,227)" offset="100%"/>
      </linearGradient>
      <linearGradient x1="60.7016" gradientUnits="userSpaceOnUse" x2="140.7016" y1="70" y2="110" id="linearGradient2" spreadMethod="reflect">
        <stop stop-opacity="1" stop-color="rgb(232,238,247)" offset="0%"/>
        <stop stop-opacity="1" stop-color="rgb(183,201,227)" offset="100%"/>
      </linearGradient>
      <linearGradient x1="60.7016" gradientUnits="userSpaceOnUse" x2="140.7016" y1="377.2906" y2="417.2906" id="linearGradient3" spreadMethod="reflect">
        <stop stop-opacity="1" stop-color="rgb(232,238,247)" offset="0%"/>
        <stop stop-opacity="1" stop-color="rgb(183,201,227)" offset="100%"/>
      </linearGradient>
      <linearGradient x1="60.7016" gradientUnits="userSpaceOnUse" x2="140.7016" y1="834.693" y2="874.693" id="linearGradient4" spreadMethod="reflect">
        <stop stop-opacity="1" stop-color="rgb(232,238,247)" offset="0%"/>
        <stop stop-opacity="1" stop-color="rgb(183,201,227)" offset="100%"/>
      </linearGradient>
      <linearGradient x1="60.7016" gradientUnits="userSpaceOnUse" x2="140.7016" y1="904.693" y2="944.693" id="linearGradient5" spreadMethod="reflect">
        <stop stop-opacity="1" stop-color="rgb(232,238,247)" offset="0%"/>
        <stop stop-opacity="1" stop-color="rgb(183,201,227)" offset="100%"/>
      </linearGradient>
      <linearGradient x1="60.7016" gradientUnits="userSpaceOnUse" x2="140.7016" y1="974.693" y2="1014.693" id="linearGradient6" spreadMethod="reflect">
        <stop stop-opacity="1" stop-color="rgb(232,238,247)" offset="0%"/>
        <stop stop-opacity="1" stop-color="rgb(183,201,227)" offset="100%"/>
      </linearGradient>
      <linearGradient x1="60.7016" gradientUnits="userSpaceOnUse" x2="140.7016" y1="1044.693" y2="1084.693" id="linearGradient7" spreadMethod="reflect">
        <stop stop-opacity="1" stop-color="rgb(232,238,247)" offset="0%"/>
        <stop stop-opacity="1" stop-color="rgb(183,201,227)" offset="100%"/>
      </linearGradient>
      <linearGradient x1="60.7016" gradientUnits="userSpaceOnUse" x2="140.7016" y1="1133.3942" y2="1173.3942" id="linearGradient8" spreadMethod="reflect">
        <stop stop-opacity="1" stop-color="rgb(232,238,247)" offset="0%"/>
        <stop stop-opacity="1" stop-color="rgb(183,201,227)" offset="100%"/>
      </linearGradient>
      <linearGradient x1="60.7016" gradientUnits="userSpaceOnUse" x2="140.7016" y1="153.6453" y2="193.6453" id="linearGradient9" spreadMethod="reflect">
        <stop stop-opacity="1" stop-color="rgb(232,238,247)" offset="0%"/>
        <stop stop-opacity="1" stop-color="rgb(183,201,227)" offset="100%"/>
      </linearGradient>
      <linearGradient x1="60.7016" gradientUnits="userSpaceOnUse" x2="140.7016" y1="535.9918" y2="575.9918" id="linearGradient10" spreadMethod="reflect">
        <stop stop-opacity="1" stop-color="rgb(232,238,247)" offset="0%"/>
        <stop stop-opacity="1" stop-color="rgb(183,201,227)" offset="100%"/>
      </linearGradient>
      <linearGradient x1="60.7016" gradientUnits="userSpaceOnUse" x2="140.7016" y1="237.2906" y2="277.2906" id="linearGradient11" spreadMethod="reflect">
        <stop stop-opacity="1" stop-color="rgb(232,238,247)" offset="0%"/>
        <stop stop-opacity="1" stop-color="rgb(183,201,227)" offset="100%"/>
      </linearGradient>
      <linearGradient x1="60.7016" gradientUnits="userSpaceOnUse" x2="140.7016" y1="764.693" y2="804.693" id="linearGradient12" spreadMethod="reflect">
        <stop stop-opacity="1" stop-color="rgb(232,238,247)" offset="0%"/>
        <stop stop-opacity="1" stop-color="rgb(183,201,227)" offset="100%"/>
      </linearGradient>
      <linearGradient x1="60.7016" gradientUnits="userSpaceOnUse" x2="140.7016" y1="447.2906" y2="487.2906" id="linearGradient13" spreadMethod="reflect">
        <stop stop-opacity="1" stop-color="rgb(232,238,247)" offset="0%"/>
        <stop stop-opacity="1" stop-color="rgb(183,201,227)" offset="100%"/>
      </linearGradient>
      <linearGradient x1="60.7016" gradientUnits="userSpaceOnUse" x2="140.7016" y1="307.2906" y2="347.2906" id="linearGradient14" spreadMethod="reflect">
        <stop stop-opacity="1" stop-color="rgb(232,238,247)" offset="0%"/>
        <stop stop-opacity="1" stop-color="rgb(183,201,227)" offset="100%"/>
      </linearGradient>
      <linearGradient x1="60.7016" gradientUnits="userSpaceOnUse" x2="140.7016" y1="605.9918" y2="645.9918" id="linearGradient15" spreadMethod="reflect">
        <stop stop-opacity="1" stop-color="rgb(232,238,247)" offset="0%"/>
        <stop stop-opacity="1" stop-color="rgb(183,201,227)" offset="100%"/>
      </linearGradient>
      <linearGradient x1="60.7016" gradientUnits="userSpaceOnUse" x2="140.7016" y1="675.9918" y2="715.9918" id="linearGradient16" spreadMethod="reflect">
        <stop stop-opacity="1" stop-color="rgb(232,238,247)" offset="0%"/>
        <stop stop-opacity="1" stop-color="rgb(183,201,227)" offset="100%"/>
      </linearGradient>
      <linearGradient x1="170.7016" gradientUnits="userSpaceOnUse" x2="250.7016" y1="140" y2="207.2906" id="linearGradient17" spreadMethod="reflect">
        <stop stop-opacity="1" stop-color="rgb(232,238,247)" offset="0%"/>
        <stop stop-opacity="1" stop-color="rgb(183,201,227)" offset="100%"/>
      </linearGradient>
      <clipPath clipPathUnits="userSpaceOnUse" id="clipPath1">
        <path d="M0 0 L270 0 L270 1204 L0 1204 L0 0 Z"/>
      </clipPath>
      <clipPath clipPathUnits="userSpaceOnUse" id="clipPath2">
        <path d="M-4 -15 L266 -15 L266 1189 L-4 1189 L-4 -15 Z"/>
      </clipPath>
    </defs>
    <g fill="white" text-rendering="geometricPrecision" shape-rendering="geometricPrecision" transform="translate(4,15)" stroke="white">
      <rect x="-4" width="270" height="1204" y="-15" clip-path="url(#clipPath2)" stroke="none"/>
    </g>
    <g fill="url(#linearGradient1)" text-rendering="geometricPrecision" shape-rendering="geometricPrecision" transform="matrix(1,0,0,1,4,15)" stroke="url(#linearGradient1)">
      <circle r="20" clip-path="url(#clipPath2)" cx="100.7016" cy="20" stroke="none"/>
    </g>
    <g text-rendering="geometricPrecision" stroke-miterlimit="1.45" shape-rendering="geometricPrecision" transform="matrix(1,0,0,1,4,15)" stroke-linecap="butt">
      <circle fill="none" r="20" clip-path="url(#clipPath2)" cx="100.7016" cy="20"/>
      <text x="88.7016" xml:space="preserve" y="24.7139" clip-path="url(#clipPath2)" font-family="sans-serif" stroke="none">開始</text>
    </g>
    <g fill="url(#linearGradient2)" text-rendering="geometricPrecision" shape-rendering="geometricPrecision" transform="matrix(1,0,0,1,4,15)" stroke="url(#linearGradient2)">
      <path d="M60.7016 70 L140.7016 70 L140.7016 110 L60.7016 110 Z" stroke="none" clip-path="url(#clipPath2)"/>
    </g>
    <g text-rendering="geometricPrecision" stroke-miterlimit="1.45" shape-rendering="geometricPrecision" transform="matrix(1,0,0,1,4,15)" stroke-linecap="butt">
      <path fill="none" d="M60.7016 70 L140.7016 70 L140.7016 110 L60.7016 110 Z" clip-path="url(#clipPath2)"/>
      <text x="76.7016" xml:space="preserve" y="94.7139" clip-path="url(#clipPath2)" font-family="sans-serif" stroke="none">需求分析</text>
    </g>
    <g fill="url(#linearGradient3)" text-rendering="geometricPrecision" shape-rendering="geometricPrecision" transform="matrix(1,0,0,1,4,15)" stroke="url(#linearGradient3)">
      <path d="M60.7016 377.2906 L140.7016 377.2906 L140.7016 417.2906 L60.7016 417.2906 Z" stroke="none" clip-path="url(#clipPath2)"/>
    </g>
    <g text-rendering="geometricPrecision" stroke-miterlimit="1.45" shape-rendering="geometricPrecision" transform="matrix(1,0,0,1,4,15)" stroke-linecap="butt">
      <path fill="none" d="M60.7016 377.2906 L140.7016 377.2906 L140.7016 417.2906 L60.7016 417.2906 Z" clip-path="url(#clipPath2)"/>
      <text x="76.7016" xml:space="preserve" y="402.0045" clip-path="url(#clipPath2)" font-family="sans-serif" stroke="none">單元測試</text>
    </g>
    <g fill="url(#linearGradient4)" text-rendering="geometricPrecision" shape-rendering="geometricPrecision" transform="matrix(1,0,0,1,4,15)" stroke="url(#linearGradient4)">
      <path d="M60.7016 834.693 L140.7016 834.693 L140.7016 874.693 L60.7016 874.693 Z" stroke="none" clip-path="url(#clipPath2)"/>
    </g>
    <g text-rendering="geometricPrecision" stroke-miterlimit="1.45" shape-rendering="geometricPrecision" transform="matrix(1,0,0,1,4,15)" stroke-linecap="butt">
      <path fill="none" d="M60.7016 834.693 L140.7016 834.693 L140.7016 874.693 L60.7016 874.693 Z" clip-path="url(#clipPath2)"/>
      <text x="88.7016" xml:space="preserve" y="852.0563" clip-path="url(#clipPath2)" font-family="sans-serif" stroke="none">建置</text>
      <text x="68.3608" xml:space="preserve" y="866.7574" clip-path="url(#clipPath2)" font-family="sans-serif" stroke="none">(SIT Config)</text>
    </g>
    <g fill="url(#linearGradient5)" text-rendering="geometricPrecision" shape-rendering="geometricPrecision" transform="matrix(1,0,0,1,4,15)" stroke="url(#linearGradient5)">
      <path d="M60.7016 904.693 L140.7016 904.693 L140.7016 944.693 L60.7016 944.693 Z" stroke="none" clip-path="url(#clipPath2)"/>
    </g>
    <g text-rendering="geometricPrecision" stroke-miterlimit="1.45" shape-rendering="geometricPrecision" transform="matrix(1,0,0,1,4,15)" stroke-linecap="butt">
      <path fill="none" d="M60.7016 904.693 L140.7016 904.693 L140.7016 944.693 L60.7016 944.693 Z" clip-path="url(#clipPath2)"/>
      <text x="88.7016" xml:space="preserve" y="922.0563" clip-path="url(#clipPath2)" font-family="sans-serif" stroke="none">發行</text>
      <text x="67.3676" xml:space="preserve" y="936.7574" clip-path="url(#clipPath2)" font-family="sans-serif" stroke="none">SIT測試環境</text>
    </g>
    <g fill="url(#linearGradient6)" text-rendering="geometricPrecision" shape-rendering="geometricPrecision" transform="matrix(1,0,0,1,4,15)" stroke="url(#linearGradient6)">
      <path d="M60.7016 974.693 L140.7016 974.693 L140.7016 1014.693 L60.7016 1014.693 Z" stroke="none" clip-path="url(#clipPath2)"/>
    </g>
    <g text-rendering="geometricPrecision" stroke-miterlimit="1.45" shape-rendering="geometricPrecision" transform="matrix(1,0,0,1,4,15)" stroke-linecap="butt">
      <path fill="none" d="M60.7016 974.693 L140.7016 974.693 L140.7016 1014.693 L60.7016 1014.693 Z" clip-path="url(#clipPath2)"/>
      <text x="70.7016" xml:space="preserve" y="992.0563" clip-path="url(#clipPath2)" font-family="sans-serif" stroke="none">開發者專案</text>
      <text x="76.7016" xml:space="preserve" y="1006.7574" clip-path="url(#clipPath2)" font-family="sans-serif" stroke="none">共同測試</text>
    </g>
    <g fill="url(#linearGradient7)" text-rendering="geometricPrecision" shape-rendering="geometricPrecision" transform="matrix(1,0,0,1,4,15)" stroke="url(#linearGradient7)">
      <path d="M100.7016 1044.693 L140.7016 1064.693 L100.7016 1084.693 L60.7016 1064.693 Z" stroke="none" clip-path="url(#clipPath2)"/>
    </g>
    <g text-rendering="geometricPrecision" stroke-miterlimit="1.45" shape-rendering="geometricPrecision" transform="matrix(1,0,0,1,4,15)" stroke-linecap="butt">
      <path fill="none" d="M100.7016 1044.693 L140.7016 1064.693 L100.7016 1084.693 L60.7016 1064.693 Z" clip-path="url(#clipPath2)"/>
      <text x="76.7016" xml:space="preserve" y="1069.4069" clip-path="url(#clipPath2)" font-family="sans-serif" stroke="none">驗證成功</text>
    </g>
    <g fill="url(#linearGradient8)" text-rendering="geometricPrecision" shape-rendering="geometricPrecision" transform="matrix(1,0,0,1,4,15)" stroke="url(#linearGradient8)">
      <rect x="60.7016" y="1133.3942" clip-path="url(#clipPath2)" width="80" rx="20" ry="20" height="40" stroke="none"/>
    </g>
    <g text-rendering="geometricPrecision" stroke-miterlimit="1.45" shape-rendering="geometricPrecision" transform="matrix(1,0,0,1,4,15)" stroke-linecap="butt">
      <rect x="60.7016" y="1133.3942" clip-path="url(#clipPath2)" fill="none" width="80" rx="20" ry="20" height="40"/>
      <text x="88.7016" xml:space="preserve" y="1158.108" clip-path="url(#clipPath2)" font-family="sans-serif" stroke="none">結束</text>
    </g>
    <g fill="url(#linearGradient9)" text-rendering="geometricPrecision" shape-rendering="geometricPrecision" transform="matrix(1,0,0,1,4,15)" stroke="url(#linearGradient9)">
      <path d="M60.7016 153.6453 L140.7016 153.6453 L140.7016 193.6453 L60.7016 193.6453 Z" stroke="none" clip-path="url(#clipPath2)"/>
    </g>
    <g text-rendering="geometricPrecision" stroke-miterlimit="1.45" shape-rendering="geometricPrecision" transform="matrix(1,0,0,1,4,15)" stroke-linecap="butt">
      <path fill="none" d="M60.7016 153.6453 L140.7016 153.6453 L140.7016 193.6453 L60.7016 193.6453 Z" clip-path="url(#clipPath2)"/>
      <text x="76.7016" xml:space="preserve" y="178.3592" clip-path="url(#clipPath2)" font-family="sans-serif" stroke="none">建立分支</text>
    </g>
    <g fill="url(#linearGradient10)" text-rendering="geometricPrecision" shape-rendering="geometricPrecision" transform="matrix(1,0,0,1,4,15)" stroke="url(#linearGradient10)">
      <path d="M60.7016 535.9918 L140.7016 535.9918 L140.7016 575.9918 L60.7016 575.9918 Z" stroke="none" clip-path="url(#clipPath2)"/>
    </g>
    <g text-rendering="geometricPrecision" stroke-miterlimit="1.45" shape-rendering="geometricPrecision" transform="matrix(1,0,0,1,4,15)" stroke-linecap="butt">
      <path fill="none" d="M60.7016 535.9918 L140.7016 535.9918 L140.7016 575.9918 L60.7016 575.9918 Z" clip-path="url(#clipPath2)"/>
      <text x="80.0356" xml:space="preserve" y="553.3551" clip-path="url(#clipPath2)" font-family="sans-serif" stroke="none">Commit</text>
      <text x="82.7016" xml:space="preserve" y="568.0563" clip-path="url(#clipPath2)" font-family="sans-serif" stroke="none">程式碼</text>
    </g>
    <g fill="url(#linearGradient11)" text-rendering="geometricPrecision" shape-rendering="geometricPrecision" transform="matrix(1,0,0,1,4,15)" stroke="url(#linearGradient11)">
      <path d="M70.7016 237.2906 L130.7016 237.2906 L140.7016 247.2906 L140.7016 277.2906 L60.7016 277.2906 L60.7016 247.2906 Z" stroke="none" clip-path="url(#clipPath2)"/>
    </g>
    <g text-rendering="geometricPrecision" stroke-miterlimit="1.45" shape-rendering="geometricPrecision" transform="matrix(1,0,0,1,4,15)" stroke-linecap="butt">
      <path fill="none" d="M70.7016 237.2906 L130.7016 237.2906 L140.7016 247.2906 L140.7016 277.2906 L60.7016 277.2906 L60.7016 247.2906 Z" clip-path="url(#clipPath2)"/>
      <text x="76.7016" xml:space="preserve" y="262.0045" clip-path="url(#clipPath2)" font-family="sans-serif" stroke="none">開始開發</text>
    </g>
    <g fill="url(#linearGradient12)" text-rendering="geometricPrecision" shape-rendering="geometricPrecision" transform="matrix(1,0,0,1,4,15)" stroke="url(#linearGradient12)">
      <path d="M60.7016 764.693 L140.7016 764.693 L140.7016 794.693 L130.7016 804.693 L70.7016 804.693 L60.7016 794.693 Z" stroke="none" clip-path="url(#clipPath2)"/>
    </g>
    <g text-rendering="geometricPrecision" stroke-miterlimit="1.45" shape-rendering="geometricPrecision" transform="matrix(1,0,0,1,4,15)" stroke-linecap="butt">
      <path fill="none" d="M60.7016 764.693 L140.7016 764.693 L140.7016 794.693 L130.7016 804.693 L70.7016 804.693 L60.7016 794.693 Z" clip-path="url(#clipPath2)"/>
      <text x="76.7016" xml:space="preserve" y="789.4069" clip-path="url(#clipPath2)" font-family="sans-serif" stroke="none">結束開發</text>
    </g>
    <g fill="url(#linearGradient13)" text-rendering="geometricPrecision" shape-rendering="geometricPrecision" transform="matrix(1,0,0,1,4,15)" stroke="url(#linearGradient13)">
      <path d="M100.7016 447.2906 L140.7016 467.2906 L100.7016 487.2906 L60.7016 467.2906 Z" stroke="none" clip-path="url(#clipPath2)"/>
    </g>
    <g text-rendering="geometricPrecision" stroke-miterlimit="1.45" shape-rendering="geometricPrecision" transform="matrix(1,0,0,1,4,15)" stroke-linecap="butt">
      <path fill="none" d="M100.7016 447.2906 L140.7016 467.2906 L100.7016 487.2906 L60.7016 467.2906 Z" clip-path="url(#clipPath2)"/>
      <text x="76.7016" xml:space="preserve" y="472.0045" clip-path="url(#clipPath2)" font-family="sans-serif" stroke="none">測試通過</text>
    </g>
    <g fill="url(#linearGradient14)" text-rendering="geometricPrecision" shape-rendering="geometricPrecision" transform="matrix(1,0,0,1,4,15)" stroke="url(#linearGradient14)">
      <path d="M60.7016 307.2906 L140.7016 307.2906 L140.7016 347.2906 L60.7016 347.2906 Z" stroke="none" clip-path="url(#clipPath2)"/>
    </g>
    <g text-rendering="geometricPrecision" stroke-miterlimit="1.45" shape-rendering="geometricPrecision" transform="matrix(1,0,0,1,4,15)" stroke-linecap="butt">
      <path fill="none" d="M60.7016 307.2906 L140.7016 307.2906 L140.7016 347.2906 L60.7016 347.2906 Z" clip-path="url(#clipPath2)"/>
      <text x="81.6879" xml:space="preserve" y="332.0045" clip-path="url(#clipPath2)" font-family="sans-serif" stroke="none">Coding</text>
    </g>
    <g fill="url(#linearGradient15)" text-rendering="geometricPrecision" shape-rendering="geometricPrecision" transform="matrix(1,0,0,1,4,15)" stroke="url(#linearGradient15)">
      <path d="M60.7016 605.9918 L140.7016 605.9918 L140.7016 645.9918 L60.7016 645.9918 Z" stroke="none" clip-path="url(#clipPath2)"/>
    </g>
    <g text-rendering="geometricPrecision" stroke-miterlimit="1.45" shape-rendering="geometricPrecision" transform="matrix(1,0,0,1,4,15)" stroke-linecap="butt">
      <path fill="none" d="M60.7016 605.9918 L140.7016 605.9918 L140.7016 645.9918 L60.7016 645.9918 Z" clip-path="url(#clipPath2)"/>
      <text x="70.7016" xml:space="preserve" y="630.7057" clip-path="url(#clipPath2)" font-family="sans-serif" stroke="none">原始碼掃描</text>
    </g>
    <g fill="url(#linearGradient16)" text-rendering="geometricPrecision" shape-rendering="geometricPrecision" transform="matrix(1,0,0,1,4,15)" stroke="url(#linearGradient16)">
      <path d="M100.7016 675.9918 L140.7016 695.9918 L100.7016 715.9918 L60.7016 695.9918 Z" stroke="none" clip-path="url(#clipPath2)"/>
    </g>
    <g text-rendering="geometricPrecision" stroke-miterlimit="1.45" shape-rendering="geometricPrecision" transform="matrix(1,0,0,1,4,15)" stroke-linecap="butt">
      <path fill="none" d="M100.7016 675.9918 L140.7016 695.9918 L100.7016 715.9918 L60.7016 695.9918 Z" clip-path="url(#clipPath2)"/>
      <text x="76.7016" xml:space="preserve" y="700.7057" clip-path="url(#clipPath2)" font-family="sans-serif" stroke="none">有無風險</text>
    </g>
    <g fill="url(#linearGradient17)" text-rendering="geometricPrecision" shape-rendering="geometricPrecision" transform="matrix(1,0,0,1,4,15)" stroke="url(#linearGradient17)">
      <path d="M170.7016 140 L250.7016 140 L250.7016 198.8793 Q230.7016 182.0567 210.7016 198.8793 Q190.7016 215.702 170.7016 198.8793 Z" stroke="none" clip-path="url(#clipPath2)"/>
    </g>
    <g text-rendering="geometricPrecision" stroke-miterlimit="1.45" shape-rendering="geometricPrecision" transform="matrix(1,0,0,1,4,15)" stroke-linecap="butt">
      <path fill="none" d="M170.7016 140 L250.7016 140 L250.7016 198.8793 Q230.7016 182.0567 210.7016 198.8793 Q190.7016 215.702 170.7016 198.8793 Z" clip-path="url(#clipPath2)"/>
      <text x="180.7016" xml:space="preserve" y="171.0086" clip-path="url(#clipPath2)" font-family="sans-serif" stroke="none">需求變更單</text>
      <text x="186.7016" xml:space="preserve" y="185.7098" clip-path="url(#clipPath2)" font-family="sans-serif" stroke="none">風險評估</text>
    </g>
    <g text-rendering="geometricPrecision" stroke-miterlimit="1.45" shape-rendering="geometricPrecision" transform="matrix(1,0,0,1,4,15)" stroke-linecap="butt">
      <path fill="none" d="M100.7016 40 L100.7016 61.9707" clip-path="url(#clipPath2)"/>
    </g>
    <g text-rendering="geometricPrecision" stroke-miterlimit="1.45" shape-rendering="geometricPrecision" transform="matrix(1,0,0,1,4,15)" stroke-linecap="butt">
      <path d="M100.7016 69.9707 L105.7016 57.9707 L100.7016 60.9707 L95.7016 57.9707 Z" stroke="none" clip-path="url(#clipPath2)"/>
      <path fill="none" d="M100.7016 874.7223 L100.7016 896.693" clip-path="url(#clipPath2)"/>
      <path d="M100.7016 904.693 L105.7016 892.693 L100.7016 895.693 L95.7016 892.693 Z" clip-path="url(#clipPath2)" stroke="none"/>
      <path fill="none" d="M100.7016 944.7223 L100.7016 966.693" clip-path="url(#clipPath2)"/>
      <path d="M100.7016 974.693 L105.7016 962.693 L100.7016 965.693 L95.7016 962.693 Z" clip-path="url(#clipPath2)" stroke="none"/>
      <path fill="none" d="M100.7016 1014.7223 L100.7016 1036.693" clip-path="url(#clipPath2)"/>
      <path d="M100.7016 1044.693 L105.7016 1032.693 L100.7016 1035.693 L95.7016 1032.693 Z" clip-path="url(#clipPath2)" stroke="none"/>
      <path fill="none" d="M100.7016 1084.7406 L100.7016 1125.3467" clip-path="url(#clipPath2)"/>
      <path d="M100.7016 1133.3467 L105.7016 1121.3467 L100.7016 1124.3467 L95.7016 1121.3467 Z" clip-path="url(#clipPath2)" stroke="none"/>
      <text x="88.6977" xml:space="preserve" y="1108.8824" clip-path="url(#clipPath2)" font-family="sans-serif" stroke="none">Y</text>
      <path fill="none" d="M100.7016 110 L100.7016 145.6453" clip-path="url(#clipPath2)"/>
      <path d="M100.7016 153.6453 L105.7016 141.6453 L100.7016 144.6453 L95.7016 141.6453 Z" clip-path="url(#clipPath2)" stroke="none"/>
      <path fill="none" d="M100.7016 193.6879 L100.7016 229.2906" clip-path="url(#clipPath2)"/>
      <path d="M100.7016 237.2906 L105.7016 225.2906 L100.7016 228.2906 L95.7016 225.2906 Z" clip-path="url(#clipPath2)" stroke="none"/>
      <path fill="none" d="M100.7016 804.7223 L100.7016 826.693" clip-path="url(#clipPath2)"/>
      <path d="M100.7016 834.693 L105.7016 822.693 L100.7016 825.693 L95.7016 822.693 Z" clip-path="url(#clipPath2)" stroke="none"/>
      <path fill="none" d="M100.7016 417.3199 L100.7016 439.2906" clip-path="url(#clipPath2)"/>
      <path d="M100.7016 447.2906 L105.7016 435.2906 L100.7016 438.2906 L95.7016 435.2906 Z" clip-path="url(#clipPath2)" stroke="none"/>
      <path fill="none" d="M100.7016 487.3382 L100.7016 527.9918" clip-path="url(#clipPath2)"/>
      <path d="M100.7016 535.9918 L105.7016 523.9918 L100.7016 526.9918 L95.7016 523.9918 Z" clip-path="url(#clipPath2)" stroke="none"/>
      <text x="88.6977" xml:space="preserve" y="511.4801" clip-path="url(#clipPath2)" font-family="sans-serif" stroke="none">Y</text>
      <path fill="none" d="M100.7016 277.3199 L100.7016 299.2906" clip-path="url(#clipPath2)"/>
      <path d="M100.7016 307.2906 L105.7016 295.2906 L100.7016 298.2906 L95.7016 295.2906 Z" clip-path="url(#clipPath2)" stroke="none"/>
      <path fill="none" d="M60.7016 467.2906 L11 467.2906 L11 292.2906 L100.7016 292.2906 L100.7016 299.2906" clip-path="url(#clipPath2)"/>
      <path d="M100.7016 307.2906 L105.7016 295.2906 L100.7016 298.2906 L95.7016 295.2906 Z" clip-path="url(#clipPath2)" stroke="none"/>
      <text x="39.9106" xml:space="preserve" y="460.6539" clip-path="url(#clipPath2)" font-family="sans-serif" stroke="none">N</text>
      <path fill="none" d="M60.7016 1064.693 L11 1064.693 L11 292.2906 L100.7016 292.2906 L100.7016 299.2906" clip-path="url(#clipPath2)"/>
      <path d="M100.7016 307.2906 L105.7016 295.2906 L100.7016 298.2906 L95.7016 295.2906 Z" clip-path="url(#clipPath2)" stroke="none"/>
      <text x="39.9106" xml:space="preserve" y="1058.0563" clip-path="url(#clipPath2)" font-family="sans-serif" stroke="none">N</text>
      <path fill="none" d="M100.7016 347.3199 L100.7016 369.2906" clip-path="url(#clipPath2)"/>
      <path d="M100.7016 377.2906 L105.7016 365.2906 L100.7016 368.2906 L95.7016 365.2906 Z" clip-path="url(#clipPath2)" stroke="none"/>
      <path fill="none" d="M100.7016 576.0211 L100.7016 597.9918" clip-path="url(#clipPath2)"/>
      <path d="M100.7016 605.9918 L105.7016 593.9918 L100.7016 596.9918 L95.7016 593.9918 Z" clip-path="url(#clipPath2)" stroke="none"/>
      <path fill="none" d="M100.7016 646.0211 L100.7016 667.9918" clip-path="url(#clipPath2)"/>
      <path d="M100.7016 675.9918 L105.7016 663.9918 L100.7016 666.9918 L95.7016 663.9918 Z" clip-path="url(#clipPath2)" stroke="none"/>
      <path fill="none" d="M60.7016 695.9918 L11 695.9918 L11 292.2906 L100.7016 292.2906 L100.7016 299.2906" clip-path="url(#clipPath2)"/>
      <path d="M100.7016 307.2906 L105.7016 295.2906 L100.7016 298.2906 L95.7016 295.2906 Z" clip-path="url(#clipPath2)" stroke="none"/>
      <text x="40.5727" xml:space="preserve" y="712.0563" clip-path="url(#clipPath2)" font-family="sans-serif" stroke="none">Y</text>
      <path fill="none" d="M100.7016 716.0394 L100.7016 756.693" clip-path="url(#clipPath2)"/>
      <path d="M100.7016 764.693 L105.7016 752.693 L100.7016 755.693 L95.7016 752.693 Z" clip-path="url(#clipPath2)" stroke="none"/>
      <text x="88.0356" xml:space="preserve" y="740.1813" clip-path="url(#clipPath2)" font-family="sans-serif" stroke="none">N</text>
      <path fill="none" d="M140.7016 90 L210.7016 90 L210.7016 139.9512" clip-path="url(#clipPath2)"/>
    </g>
  </g>
</svg>
