<?xml version="1.0" encoding="UTF-8"?><svg xmlns="http://www.w3.org/2000/svg" xmlns:xlink="http://www.w3.org/1999/xlink" fill-opacity="1" color-rendering="auto" color-interpolation="auto" text-rendering="auto" stroke="black" stroke-linecap="square" width="220" stroke-miterlimit="10" shape-rendering="auto" stroke-opacity="1" fill="black" stroke-dasharray="none" font-weight="normal" stroke-width="1" height="1317" font-family="'Dialog'" font-style="normal" stroke-linejoin="miter" font-size="12px" stroke-dashoffset="0" image-rendering="auto">
  <!--Generated by ySVG 2.5-->
  <defs id="genericDefs"/>
  <g>
    <defs id="defs1">
      <linearGradient x1="10" gradientUnits="userSpaceOnUse" x2="90" y1="0" y2="40" id="linearGradient1" spreadMethod="reflect">
        <stop stop-opacity="1" stop-color="rgb(232,238,247)" offset="0%"/>
        <stop stop-opacity="1" stop-color="rgb(183,201,227)" offset="100%"/>
      </linearGradient>
      <linearGradient x1="10" gradientUnits="userSpaceOnUse" x2="90" y1="210" y2="250" id="linearGradient2" spreadMethod="reflect">
        <stop stop-opacity="1" stop-color="rgb(232,238,247)" offset="0%"/>
        <stop stop-opacity="1" stop-color="rgb(183,201,227)" offset="100%"/>
      </linearGradient>
      <linearGradient x1="10" gradientUnits="userSpaceOnUse" x2="90" y1="280" y2="320" id="linearGradient3" spreadMethod="reflect">
        <stop stop-opacity="1" stop-color="rgb(232,238,247)" offset="0%"/>
        <stop stop-opacity="1" stop-color="rgb(183,201,227)" offset="100%"/>
      </linearGradient>
      <linearGradient x1="10" gradientUnits="userSpaceOnUse" x2="90" y1="140" y2="180" id="linearGradient4" spreadMethod="reflect">
        <stop stop-opacity="1" stop-color="rgb(232,238,247)" offset="0%"/>
        <stop stop-opacity="1" stop-color="rgb(183,201,227)" offset="100%"/>
      </linearGradient>
      <linearGradient x1="10" gradientUnits="userSpaceOnUse" x2="90" y1="667.4023" y2="707.4023" id="linearGradient5" spreadMethod="reflect">
        <stop stop-opacity="1" stop-color="rgb(232,238,247)" offset="0%"/>
        <stop stop-opacity="1" stop-color="rgb(183,201,227)" offset="100%"/>
      </linearGradient>
      <linearGradient x1="10" gradientUnits="userSpaceOnUse" x2="90" y1="70" y2="110" id="linearGradient6" spreadMethod="reflect">
        <stop stop-opacity="1" stop-color="rgb(232,238,247)" offset="0%"/>
        <stop stop-opacity="1" stop-color="rgb(183,201,227)" offset="100%"/>
      </linearGradient>
      <linearGradient x1="10" gradientUnits="userSpaceOnUse" x2="90" y1="438.7012" y2="478.7012" id="linearGradient7" spreadMethod="reflect">
        <stop stop-opacity="1" stop-color="rgb(232,238,247)" offset="0%"/>
        <stop stop-opacity="1" stop-color="rgb(183,201,227)" offset="100%"/>
      </linearGradient>
      <linearGradient x1="10" gradientUnits="userSpaceOnUse" x2="90" y1="350" y2="390" id="linearGradient8" spreadMethod="reflect">
        <stop stop-opacity="1" stop-color="rgb(232,238,247)" offset="0%"/>
        <stop stop-opacity="1" stop-color="rgb(183,201,227)" offset="100%"/>
      </linearGradient>
      <linearGradient x1="10" gradientUnits="userSpaceOnUse" x2="90" y1="508.7012" y2="548.7012" id="linearGradient9" spreadMethod="reflect">
        <stop stop-opacity="1" stop-color="rgb(232,238,247)" offset="0%"/>
        <stop stop-opacity="1" stop-color="rgb(183,201,227)" offset="100%"/>
      </linearGradient>
      <linearGradient x1="10" gradientUnits="userSpaceOnUse" x2="90" y1="578.7012" y2="618.7012" id="linearGradient10" spreadMethod="reflect">
        <stop stop-opacity="1" stop-color="rgb(232,238,247)" offset="0%"/>
        <stop stop-opacity="1" stop-color="rgb(183,201,227)" offset="100%"/>
      </linearGradient>
      <linearGradient x1="10" gradientUnits="userSpaceOnUse" x2="90" y1="947.4023" y2="987.4023" id="linearGradient11" spreadMethod="reflect">
        <stop stop-opacity="1" stop-color="rgb(232,238,247)" offset="0%"/>
        <stop stop-opacity="1" stop-color="rgb(183,201,227)" offset="100%"/>
      </linearGradient>
      <linearGradient x1="120" gradientUnits="userSpaceOnUse" x2="200" y1="1176.1035" y2="1216.1035" id="linearGradient12" spreadMethod="reflect">
        <stop stop-opacity="1" stop-color="rgb(232,238,247)" offset="0%"/>
        <stop stop-opacity="1" stop-color="rgb(183,201,227)" offset="100%"/>
      </linearGradient>
      <linearGradient x1="10" gradientUnits="userSpaceOnUse" x2="90" y1="1176.1035" y2="1216.1035" id="linearGradient13" spreadMethod="reflect">
        <stop stop-opacity="1" stop-color="rgb(232,238,247)" offset="0%"/>
        <stop stop-opacity="1" stop-color="rgb(183,201,227)" offset="100%"/>
      </linearGradient>
      <linearGradient x1="10" gradientUnits="userSpaceOnUse" x2="90" y1="1246.1035" y2="1286.1035" id="linearGradient14" spreadMethod="reflect">
        <stop stop-opacity="1" stop-color="rgb(232,238,247)" offset="0%"/>
        <stop stop-opacity="1" stop-color="rgb(183,201,227)" offset="100%"/>
      </linearGradient>
      <linearGradient x1="10" gradientUnits="userSpaceOnUse" x2="90" y1="1017.4023" y2="1057.4023" id="linearGradient15" spreadMethod="reflect">
        <stop stop-opacity="1" stop-color="rgb(232,238,247)" offset="0%"/>
        <stop stop-opacity="1" stop-color="rgb(183,201,227)" offset="100%"/>
      </linearGradient>
      <linearGradient x1="10" gradientUnits="userSpaceOnUse" x2="90" y1="1087.4023" y2="1127.4023" id="linearGradient16" spreadMethod="reflect">
        <stop stop-opacity="1" stop-color="rgb(232,238,247)" offset="0%"/>
        <stop stop-opacity="1" stop-color="rgb(183,201,227)" offset="100%"/>
      </linearGradient>
      <linearGradient x1="120" gradientUnits="userSpaceOnUse" x2="200" y1="877.4023" y2="917.4023" id="linearGradient17" spreadMethod="reflect">
        <stop stop-opacity="1" stop-color="rgb(232,238,247)" offset="0%"/>
        <stop stop-opacity="1" stop-color="rgb(183,201,227)" offset="100%"/>
      </linearGradient>
      <linearGradient x1="120" gradientUnits="userSpaceOnUse" x2="200" y1="947.4023" y2="987.4023" id="linearGradient18" spreadMethod="reflect">
        <stop stop-opacity="1" stop-color="rgb(232,238,247)" offset="0%"/>
        <stop stop-opacity="1" stop-color="rgb(183,201,227)" offset="100%"/>
      </linearGradient>
      <linearGradient x1="10" gradientUnits="userSpaceOnUse" x2="90" y1="807.4023" y2="847.4023" id="linearGradient19" spreadMethod="reflect">
        <stop stop-opacity="1" stop-color="rgb(232,238,247)" offset="0%"/>
        <stop stop-opacity="1" stop-color="rgb(183,201,227)" offset="100%"/>
      </linearGradient>
      <linearGradient x1="10" gradientUnits="userSpaceOnUse" x2="90" y1="737.4023" y2="777.4023" id="linearGradient20" spreadMethod="reflect">
        <stop stop-opacity="1" stop-color="rgb(232,238,247)" offset="0%"/>
        <stop stop-opacity="1" stop-color="rgb(183,201,227)" offset="100%"/>
      </linearGradient>
      <linearGradient x1="10" gradientUnits="userSpaceOnUse" x2="90" y1="877.4023" y2="917.4023" id="linearGradient21" spreadMethod="reflect">
        <stop stop-opacity="1" stop-color="rgb(232,238,247)" offset="0%"/>
        <stop stop-opacity="1" stop-color="rgb(183,201,227)" offset="100%"/>
      </linearGradient>
      <clipPath clipPathUnits="userSpaceOnUse" id="clipPath1">
        <path d="M0 0 L220 0 L220 1317 L0 1317 L0 0 Z"/>
      </clipPath>
      <clipPath clipPathUnits="userSpaceOnUse" id="clipPath2">
        <path d="M-5 -15 L215 -15 L215 1302 L-5 1302 L-5 -15 Z"/>
      </clipPath>
    </defs>
    <g fill="white" text-rendering="geometricPrecision" shape-rendering="geometricPrecision" transform="translate(5,15)" stroke="white">
      <rect x="-5" width="220" height="1317" y="-15" clip-path="url(#clipPath2)" stroke="none"/>
    </g>
    <g fill="url(#linearGradient1)" text-rendering="geometricPrecision" shape-rendering="geometricPrecision" transform="matrix(1,0,0,1,5,15)" stroke="url(#linearGradient1)">
      <circle r="20" clip-path="url(#clipPath2)" cx="50" cy="20" stroke="none"/>
    </g>
    <g text-rendering="geometricPrecision" stroke-miterlimit="1.45" shape-rendering="geometricPrecision" transform="matrix(1,0,0,1,5,15)" stroke-linecap="butt">
      <circle fill="none" r="20" clip-path="url(#clipPath2)" cx="50" cy="20"/>
      <text x="38" xml:space="preserve" y="24.7139" clip-path="url(#clipPath2)" font-family="sans-serif" stroke="none">開始</text>
    </g>
    <g fill="url(#linearGradient2)" text-rendering="geometricPrecision" shape-rendering="geometricPrecision" transform="matrix(1,0,0,1,5,15)" stroke="url(#linearGradient2)">
      <path d="M10 210 L90 210 L90 250 L10 250 Z" stroke="none" clip-path="url(#clipPath2)"/>
    </g>
    <g text-rendering="geometricPrecision" stroke-miterlimit="1.45" shape-rendering="geometricPrecision" transform="matrix(1,0,0,1,5,15)" stroke-linecap="butt">
      <path fill="none" d="M10 210 L90 210 L90 250 L10 250 Z" clip-path="url(#clipPath2)"/>
      <text x="26" xml:space="preserve" y="234.7139" clip-path="url(#clipPath2)" font-family="sans-serif" stroke="none">挑選功能</text>
    </g>
    <g fill="url(#linearGradient3)" text-rendering="geometricPrecision" shape-rendering="geometricPrecision" transform="matrix(1,0,0,1,5,15)" stroke="url(#linearGradient3)">
      <path d="M10 280 L90 280 L90 320 L10 320 Z" stroke="none" clip-path="url(#clipPath2)"/>
    </g>
    <g text-rendering="geometricPrecision" stroke-miterlimit="1.45" shape-rendering="geometricPrecision" transform="matrix(1,0,0,1,5,15)" stroke-linecap="butt">
      <path fill="none" d="M10 280 L90 280 L90 320 L10 320 Z" clip-path="url(#clipPath2)"/>
      <text x="26" xml:space="preserve" y="304.7139" clip-path="url(#clipPath2)" font-family="sans-serif" stroke="none">執行合併</text>
    </g>
    <g fill="url(#linearGradient4)" text-rendering="geometricPrecision" shape-rendering="geometricPrecision" transform="matrix(1,0,0,1,5,15)" stroke="url(#linearGradient4)">
      <path d="M20 140 L80 140 L90 150 L90 180 L10 180 L10 150 Z" stroke="none" clip-path="url(#clipPath2)"/>
    </g>
    <g text-rendering="geometricPrecision" stroke-miterlimit="1.45" shape-rendering="geometricPrecision" transform="matrix(1,0,0,1,5,15)" stroke-linecap="butt">
      <path fill="none" d="M20 140 L80 140 L90 150 L90 180 L10 180 L10 150 Z" clip-path="url(#clipPath2)"/>
      <text x="26" xml:space="preserve" y="164.7139" clip-path="url(#clipPath2)" font-family="sans-serif" stroke="none">合併開始</text>
    </g>
    <g fill="url(#linearGradient5)" text-rendering="geometricPrecision" shape-rendering="geometricPrecision" transform="matrix(1,0,0,1,5,15)" stroke="url(#linearGradient5)">
      <path d="M10 667.4023 L90 667.4023 L90 697.4023 L80 707.4023 L20 707.4023 L10 697.4023 Z" stroke="none" clip-path="url(#clipPath2)"/>
    </g>
    <g text-rendering="geometricPrecision" stroke-miterlimit="1.45" shape-rendering="geometricPrecision" transform="matrix(1,0,0,1,5,15)" stroke-linecap="butt">
      <path fill="none" d="M10 667.4023 L90 667.4023 L90 697.4023 L80 707.4023 L20 707.4023 L10 697.4023 Z" clip-path="url(#clipPath2)"/>
      <text x="26" xml:space="preserve" y="692.1162" clip-path="url(#clipPath2)" font-family="sans-serif" stroke="none">合併結束</text>
    </g>
    <g fill="url(#linearGradient6)" text-rendering="geometricPrecision" shape-rendering="geometricPrecision" transform="matrix(1,0,0,1,5,15)" stroke="url(#linearGradient6)">
      <path d="M10 70 L90 70 L90 110 L10 110 Z" stroke="none" clip-path="url(#clipPath2)"/>
    </g>
    <g text-rendering="geometricPrecision" stroke-miterlimit="1.45" shape-rendering="geometricPrecision" transform="matrix(1,0,0,1,5,15)" stroke-linecap="butt">
      <path fill="none" d="M10 70 L90 70 L90 110 L10 110 Z" clip-path="url(#clipPath2)"/>
      <text x="14" xml:space="preserve" y="94.7139" clip-path="url(#clipPath2)" font-family="sans-serif" stroke="none">建立合併分支</text>
    </g>
    <g fill="url(#linearGradient7)" text-rendering="geometricPrecision" shape-rendering="geometricPrecision" transform="matrix(1,0,0,1,5,15)" stroke="url(#linearGradient7)">
      <path d="M10 438.7012 L90 438.7012 L90 478.7012 L10 478.7012 Z" stroke="none" clip-path="url(#clipPath2)"/>
    </g>
    <g text-rendering="geometricPrecision" stroke-miterlimit="1.45" shape-rendering="geometricPrecision" transform="matrix(1,0,0,1,5,15)" stroke-linecap="butt">
      <path fill="none" d="M10 438.7012 L90 438.7012 L90 478.7012 L10 478.7012 Z" clip-path="url(#clipPath2)"/>
      <text x="26" xml:space="preserve" y="463.415" clip-path="url(#clipPath2)" font-family="sans-serif" stroke="none">解決衝突</text>
    </g>
    <g fill="url(#linearGradient8)" text-rendering="geometricPrecision" shape-rendering="geometricPrecision" transform="matrix(1,0,0,1,5,15)" stroke="url(#linearGradient8)">
      <path d="M50 350 L90 370 L50 390 L10 370 Z" stroke="none" clip-path="url(#clipPath2)"/>
    </g>
    <g text-rendering="geometricPrecision" stroke-miterlimit="1.45" shape-rendering="geometricPrecision" transform="matrix(1,0,0,1,5,15)" stroke-linecap="butt">
      <path fill="none" d="M50 350 L90 370 L50 390 L10 370 Z" clip-path="url(#clipPath2)"/>
      <text x="26" xml:space="preserve" y="374.7139" clip-path="url(#clipPath2)" font-family="sans-serif" stroke="none">是否衝突</text>
    </g>
    <g fill="url(#linearGradient9)" text-rendering="geometricPrecision" shape-rendering="geometricPrecision" transform="matrix(1,0,0,1,5,15)" stroke="url(#linearGradient9)">
      <path d="M10 508.7012 L90 508.7012 L90 548.7012 L10 548.7012 Z" stroke="none" clip-path="url(#clipPath2)"/>
    </g>
    <g text-rendering="geometricPrecision" stroke-miterlimit="1.45" shape-rendering="geometricPrecision" transform="matrix(1,0,0,1,5,15)" stroke-linecap="butt">
      <path fill="none" d="M10 508.7012 L90 508.7012 L90 548.7012 L10 548.7012 Z" clip-path="url(#clipPath2)"/>
      <text x="26" xml:space="preserve" y="533.415" clip-path="url(#clipPath2)" font-family="sans-serif" stroke="none">確認合併</text>
    </g>
    <g fill="url(#linearGradient10)" text-rendering="geometricPrecision" shape-rendering="geometricPrecision" transform="matrix(1,0,0,1,5,15)" stroke="url(#linearGradient10)">
      <path d="M50 578.7012 L90 598.7012 L50 618.7012 L10 598.7012 Z" stroke="none" clip-path="url(#clipPath2)"/>
    </g>
    <g text-rendering="geometricPrecision" stroke-miterlimit="1.45" shape-rendering="geometricPrecision" transform="matrix(1,0,0,1,5,15)" stroke-linecap="butt">
      <path fill="none" d="M50 578.7012 L90 598.7012 L50 618.7012 L10 598.7012 Z" clip-path="url(#clipPath2)"/>
      <text x="38" xml:space="preserve" y="596.0645" clip-path="url(#clipPath2)" font-family="sans-serif" stroke="none">功能</text>
      <text x="32" xml:space="preserve" y="610.7656" clip-path="url(#clipPath2)" font-family="sans-serif" stroke="none">待合併</text>
    </g>
    <g fill="url(#linearGradient11)" text-rendering="geometricPrecision" shape-rendering="geometricPrecision" transform="matrix(1,0,0,1,5,15)" stroke="url(#linearGradient11)">
      <path d="M10 947.4023 L90 947.4023 L90 987.4023 L10 987.4023 Z" stroke="none" clip-path="url(#clipPath2)"/>
    </g>
    <g text-rendering="geometricPrecision" stroke-miterlimit="1.45" shape-rendering="geometricPrecision" transform="matrix(1,0,0,1,5,15)" stroke-linecap="butt">
      <path fill="none" d="M10 947.4023 L90 947.4023 L90 987.4023 L10 987.4023 Z" clip-path="url(#clipPath2)"/>
      <text x="38" xml:space="preserve" y="964.7656" clip-path="url(#clipPath2)" font-family="sans-serif" stroke="none">通知</text>
      <text x="20" xml:space="preserve" y="979.4668" clip-path="url(#clipPath2)" font-family="sans-serif" stroke="none">使用者測試</text>
    </g>
    <g fill="url(#linearGradient12)" text-rendering="geometricPrecision" shape-rendering="geometricPrecision" transform="matrix(1,0,0,1,5,15)" stroke="url(#linearGradient12)">
      <path d="M120 1176.1035 L200 1176.1035 L200 1216.1035 L120 1216.1035 Z" stroke="none" clip-path="url(#clipPath2)"/>
    </g>
    <g text-rendering="geometricPrecision" stroke-miterlimit="1.45" shape-rendering="geometricPrecision" transform="matrix(1,0,0,1,5,15)" stroke-linecap="butt">
      <path fill="none" d="M120 1176.1035 L200 1176.1035 L200 1216.1035 L120 1216.1035 Z" clip-path="url(#clipPath2)"/>
      <text x="136" xml:space="preserve" y="1200.8174" clip-path="url(#clipPath2)" font-family="sans-serif" stroke="none">修改除錯</text>
    </g>
    <g fill="url(#linearGradient13)" text-rendering="geometricPrecision" shape-rendering="geometricPrecision" transform="matrix(1,0,0,1,5,15)" stroke="url(#linearGradient13)">
      <path d="M10 1176.1035 L90 1176.1035 L90 1216.1035 L10 1216.1035 Z" stroke="none" clip-path="url(#clipPath2)"/>
    </g>
    <g text-rendering="geometricPrecision" stroke-miterlimit="1.45" shape-rendering="geometricPrecision" transform="matrix(1,0,0,1,5,15)" stroke-linecap="butt">
      <path fill="none" d="M10 1176.1035 L90 1176.1035 L90 1216.1035 L10 1216.1035 Z" clip-path="url(#clipPath2)"/>
      <text x="14" xml:space="preserve" y="1193.4668" clip-path="url(#clipPath2)" font-family="sans-serif" stroke="none">註記合併分支</text>
      <text x="14" xml:space="preserve" y="1208.168" clip-path="url(#clipPath2)" font-family="sans-serif" stroke="none">發行版本標籤</text>
    </g>
    <g fill="url(#linearGradient14)" text-rendering="geometricPrecision" shape-rendering="geometricPrecision" transform="matrix(1,0,0,1,5,15)" stroke="url(#linearGradient14)">
      <rect x="10" y="1246.1035" clip-path="url(#clipPath2)" width="80" rx="20" ry="20" height="40" stroke="none"/>
    </g>
    <g text-rendering="geometricPrecision" stroke-miterlimit="1.45" shape-rendering="geometricPrecision" transform="matrix(1,0,0,1,5,15)" stroke-linecap="butt">
      <rect x="10" y="1246.1035" clip-path="url(#clipPath2)" fill="none" width="80" rx="20" ry="20" height="40"/>
      <text x="38" xml:space="preserve" y="1270.8174" clip-path="url(#clipPath2)" font-family="sans-serif" stroke="none">結束</text>
    </g>
    <g fill="url(#linearGradient15)" text-rendering="geometricPrecision" shape-rendering="geometricPrecision" transform="matrix(1,0,0,1,5,15)" stroke="url(#linearGradient15)">
      <rect x="10" width="80" height="40" y="1017.4023" clip-path="url(#clipPath2)" stroke="none"/>
    </g>
    <g text-rendering="geometricPrecision" stroke-miterlimit="1.45" shape-rendering="geometricPrecision" transform="matrix(1,0,0,1,5,15)" stroke-linecap="butt">
      <rect fill="none" x="10" width="80" height="40" y="1017.4023" clip-path="url(#clipPath2)"/>
      <path fill="none" d="M20 1017.4023 L20 1057.4023 M80 1017.4023 L80 1057.4023 M20 1017.4023 Z" clip-path="url(#clipPath2)"/>
      <text x="32" xml:space="preserve" y="1034.7656" clip-path="url(#clipPath2)" font-family="sans-serif" stroke="none">使用者</text>
      <text x="26" xml:space="preserve" y="1049.4668" clip-path="url(#clipPath2)" font-family="sans-serif" stroke="none">測試流程</text>
    </g>
    <g fill="url(#linearGradient16)" text-rendering="geometricPrecision" shape-rendering="geometricPrecision" transform="matrix(1,0,0,1,5,15)" stroke="url(#linearGradient16)">
      <path d="M50 1087.4023 L90 1107.4023 L50 1127.4023 L10 1107.4023 Z" stroke="none" clip-path="url(#clipPath2)"/>
    </g>
    <g text-rendering="geometricPrecision" stroke-miterlimit="1.45" shape-rendering="geometricPrecision" transform="matrix(1,0,0,1,5,15)" stroke-linecap="butt">
      <path fill="none" d="M50 1087.4023 L90 1107.4023 L50 1127.4023 L10 1107.4023 Z" clip-path="url(#clipPath2)"/>
      <text x="26" xml:space="preserve" y="1112.1162" clip-path="url(#clipPath2)" font-family="sans-serif" stroke="none">驗證通過</text>
    </g>
    <g fill="url(#linearGradient17)" text-rendering="geometricPrecision" shape-rendering="geometricPrecision" transform="matrix(1,0,0,1,5,15)" stroke="url(#linearGradient17)">
      <path d="M120 877.4023 L200 877.4023 L200 912.4023 Q180 902.4023 160 912.4023 Q140 922.4023 120 912.4023 Z" stroke="none" clip-path="url(#clipPath2)"/>
    </g>
    <g text-rendering="geometricPrecision" stroke-miterlimit="1.45" shape-rendering="geometricPrecision" transform="matrix(1,0,0,1,5,15)" stroke-linecap="butt">
      <path fill="none" d="M120 877.4023 L200 877.4023 L200 912.4023 Q180 902.4023 160 912.4023 Q140 922.4023 120 912.4023 Z" clip-path="url(#clipPath2)"/>
      <text x="130" xml:space="preserve" y="902.1162" clip-path="url(#clipPath2)" font-family="sans-serif" stroke="none">編譯記錄單</text>
    </g>
    <g fill="url(#linearGradient18)" text-rendering="geometricPrecision" shape-rendering="geometricPrecision" transform="matrix(1,0,0,1,5,15)" stroke="url(#linearGradient18)">
      <path d="M120 947.4023 L200 947.4023 L200 982.4023 Q180 972.4023 160 982.4023 Q140 992.4023 120 982.4023 Z" stroke="none" clip-path="url(#clipPath2)"/>
    </g>
    <g text-rendering="geometricPrecision" stroke-miterlimit="1.45" shape-rendering="geometricPrecision" transform="matrix(1,0,0,1,5,15)" stroke-linecap="butt">
      <path fill="none" d="M120 947.4023 L200 947.4023 L200 982.4023 Q180 972.4023 160 982.4023 Q140 992.4023 120 982.4023 Z" clip-path="url(#clipPath2)"/>
      <text x="124" xml:space="preserve" y="972.1162" clip-path="url(#clipPath2)" font-family="sans-serif" stroke="none">發行功能清單</text>
    </g>
    <g fill="url(#linearGradient19)" text-rendering="geometricPrecision" shape-rendering="geometricPrecision" transform="matrix(1,0,0,1,5,15)" stroke="url(#linearGradient19)">
      <rect x="10" width="80" height="40" y="807.4023" clip-path="url(#clipPath2)" stroke="none"/>
    </g>
    <g text-rendering="geometricPrecision" stroke-miterlimit="1.45" shape-rendering="geometricPrecision" transform="matrix(1,0,0,1,5,15)" stroke-linecap="butt">
      <rect fill="none" x="10" width="80" height="40" y="807.4023" clip-path="url(#clipPath2)"/>
      <path fill="none" d="M20 807.4023 L20 847.4023 M80 807.4023 L80 847.4023 M20 807.4023 Z" clip-path="url(#clipPath2)"/>
      <text x="26" xml:space="preserve" y="824.7656" clip-path="url(#clipPath2)" font-family="sans-serif" stroke="none">建置流程</text>
      <text x="38" xml:space="preserve" y="839.4668" clip-path="url(#clipPath2)" font-family="sans-serif" stroke="none">UAT</text>
    </g>
    <g fill="url(#linearGradient20)" text-rendering="geometricPrecision" shape-rendering="geometricPrecision" transform="matrix(1,0,0,1,5,15)" stroke="url(#linearGradient20)">
      <path d="M10 737.4023 L90 737.4023 L90 777.4023 L10 777.4023 Z" stroke="none" clip-path="url(#clipPath2)"/>
    </g>
    <g text-rendering="geometricPrecision" stroke-miterlimit="1.45" shape-rendering="geometricPrecision" transform="matrix(1,0,0,1,5,15)" stroke-linecap="butt">
      <path fill="none" d="M10 737.4023 L90 737.4023 L90 777.4023 L10 777.4023 Z" clip-path="url(#clipPath2)"/>
      <text x="14" xml:space="preserve" y="762.1162" clip-path="url(#clipPath2)" font-family="sans-serif" stroke="none">發動建置要求</text>
    </g>
    <g fill="url(#linearGradient21)" text-rendering="geometricPrecision" shape-rendering="geometricPrecision" transform="matrix(1,0,0,1,5,15)" stroke="url(#linearGradient21)">
      <rect x="10" width="80" height="40" y="877.4023" clip-path="url(#clipPath2)" stroke="none"/>
    </g>
    <g text-rendering="geometricPrecision" stroke-miterlimit="1.45" shape-rendering="geometricPrecision" transform="matrix(1,0,0,1,5,15)" stroke-linecap="butt">
      <rect fill="none" x="10" width="80" height="40" y="877.4023" clip-path="url(#clipPath2)"/>
      <path fill="none" d="M20 877.4023 L20 917.4023 M80 877.4023 L80 917.4023 M20 877.4023 Z" clip-path="url(#clipPath2)"/>
      <text x="26" xml:space="preserve" y="894.7656" clip-path="url(#clipPath2)" font-family="sans-serif" stroke="none">發行流程</text>
      <text x="38" xml:space="preserve" y="909.4668" clip-path="url(#clipPath2)" font-family="sans-serif" stroke="none">UAT</text>
    </g>
    <g text-rendering="geometricPrecision" stroke-miterlimit="1.45" shape-rendering="geometricPrecision" transform="matrix(1,0,0,1,5,15)" stroke-linecap="butt">
      <path fill="none" d="M50 250 L50 271.9707" clip-path="url(#clipPath2)"/>
    </g>
    <g text-rendering="geometricPrecision" stroke-miterlimit="1.45" shape-rendering="geometricPrecision" transform="matrix(1,0,0,1,5,15)" stroke-linecap="butt">
      <path d="M50 279.9707 L55 267.9707 L50 270.9707 L45 267.9707 Z" stroke="none" clip-path="url(#clipPath2)"/>
      <path fill="none" d="M50 180 L50 201.9707" clip-path="url(#clipPath2)"/>
      <path d="M50 209.9707 L55 197.9707 L50 200.9707 L45 197.9707 Z" clip-path="url(#clipPath2)" stroke="none"/>
      <path fill="none" d="M50 40 L50 61.9707" clip-path="url(#clipPath2)"/>
      <path d="M50 69.9707 L55 57.9707 L50 60.9707 L45 57.9707 Z" clip-path="url(#clipPath2)" stroke="none"/>
      <path fill="none" d="M50 110 L50 131.9707" clip-path="url(#clipPath2)"/>
      <path d="M50 139.9707 L55 127.9707 L50 130.9707 L45 127.9707 Z" clip-path="url(#clipPath2)" stroke="none"/>
      <path fill="none" d="M50 320 L50 342" clip-path="url(#clipPath2)"/>
      <path d="M50 350 L55 338 L50 341 L45 338 Z" clip-path="url(#clipPath2)" stroke="none"/>
      <path fill="none" d="M50 390 L50 430.6536" clip-path="url(#clipPath2)"/>
      <path d="M50 438.6536 L55 426.6536 L50 429.6536 L45 426.6536 Z" clip-path="url(#clipPath2)" stroke="none"/>
      <text x="37.9961" xml:space="preserve" y="414.1895" clip-path="url(#clipPath2)" font-family="sans-serif" stroke="none">Y</text>
      <path fill="none" d="M50 478.7012 L50 500.6719" clip-path="url(#clipPath2)"/>
      <path d="M50 508.6719 L55 496.6719 L50 499.6719 L45 496.6719 Z" clip-path="url(#clipPath2)" stroke="none"/>
      <path fill="none" d="M90 370 L105 370 L105 528.7012 L98 528.7012" clip-path="url(#clipPath2)"/>
      <path d="M90 528.7012 L102 533.7012 L99 528.7012 L102 523.7012 Z" clip-path="url(#clipPath2)" stroke="none"/>
      <text x="97.7295" xml:space="preserve" y="363.3633" clip-path="url(#clipPath2)" font-family="sans-serif" stroke="none">N</text>
      <path fill="none" d="M50 548.7012 L50 570.7012" clip-path="url(#clipPath2)"/>
      <path d="M50 578.7012 L55 566.7012 L50 569.7012 L45 566.7012 Z" clip-path="url(#clipPath2)" stroke="none"/>
      <path fill="none" d="M90 598.7012 L120 598.7012 L120 230 L98 230" clip-path="url(#clipPath2)"/>
      <path d="M90 230 L102 235 L99 230 L102 225 Z" clip-path="url(#clipPath2)" stroke="none"/>
      <text x="102.125" xml:space="preserve" y="592.0645" clip-path="url(#clipPath2)" font-family="sans-serif" stroke="none">Y</text>
      <path fill="none" d="M50 618.7012 L50 659.3548" clip-path="url(#clipPath2)"/>
      <path d="M50 667.3548 L55 655.3548 L50 658.3548 L45 655.3548 Z" clip-path="url(#clipPath2)" stroke="none"/>
      <text x="37.334" xml:space="preserve" y="642.8906" clip-path="url(#clipPath2)" font-family="sans-serif" stroke="none">N</text>
      <path fill="none" d="M160 1176.0612 L160 1002.4023 L105 1002.4023 L105 967.4023 L98 967.4023" clip-path="url(#clipPath2)"/>
      <path d="M90 967.4023 L102 972.4023 L99 967.4023 L102 962.4023 Z" clip-path="url(#clipPath2)" stroke="none"/>
      <path fill="none" d="M50 1216.1035 L50 1238.0742" clip-path="url(#clipPath2)"/>
      <path d="M50 1246.0742 L55 1234.0742 L50 1237.0742 L45 1234.0742 Z" clip-path="url(#clipPath2)" stroke="none"/>
      <path fill="none" d="M50 987.4023 L50 1009.373" clip-path="url(#clipPath2)"/>
      <path d="M50 1017.373 L55 1005.373 L50 1008.373 L45 1005.373 Z" clip-path="url(#clipPath2)" stroke="none"/>
      <path fill="none" d="M50 1057.4023 L50 1079.4023" clip-path="url(#clipPath2)"/>
      <path d="M50 1087.4023 L55 1075.4023 L50 1078.4023 L45 1075.4023 Z" clip-path="url(#clipPath2)" stroke="none"/>
      <path fill="none" d="M90 1107.4023 L105 1107.4023 L105 1196.1035 L111.9707 1196.1035" clip-path="url(#clipPath2)"/>
      <path d="M119.9707 1196.1035 L107.9707 1191.1035 L110.9707 1196.1035 L107.9707 1201.1035 Z" clip-path="url(#clipPath2)" stroke="none"/>
      <text x="97.7295" xml:space="preserve" y="1100.7656" clip-path="url(#clipPath2)" font-family="sans-serif" stroke="none">N</text>
      <path fill="none" d="M50 1127.4023 L50 1168.0559" clip-path="url(#clipPath2)"/>
      <path d="M50 1176.0559 L55 1164.0559 L50 1167.0559 L45 1164.0559 Z" clip-path="url(#clipPath2)" stroke="none"/>
      <text x="37.9961" xml:space="preserve" y="1151.5918" clip-path="url(#clipPath2)" font-family="sans-serif" stroke="none">Y</text>
      <path fill="none" d="M90 827.4023 L160 827.4023 L160 877.3535" clip-path="url(#clipPath2)"/>
      <path fill="none" d="M50 707.4023 L50 729.373" clip-path="url(#clipPath2)"/>
      <path d="M50 737.373 L55 725.373 L50 728.373 L45 725.373 Z" clip-path="url(#clipPath2)" stroke="none"/>
      <path fill="none" d="M50 777.4023 L50 799.373" clip-path="url(#clipPath2)"/>
      <path d="M50 807.373 L55 795.373 L50 798.373 L45 795.373 Z" clip-path="url(#clipPath2)" stroke="none"/>
      <path fill="none" d="M50 847.4023 L50 869.373" clip-path="url(#clipPath2)"/>
      <path d="M50 877.373 L55 865.373 L50 868.373 L45 865.373 Z" clip-path="url(#clipPath2)" stroke="none"/>
      <path fill="none" d="M90 897.4023 L105 897.4023 L105 932.4023 L160 932.4023 L160 947.373" clip-path="url(#clipPath2)"/>
      <path fill="none" d="M50 917.4023 L50 939.373" clip-path="url(#clipPath2)"/>
      <path d="M50 947.373 L55 935.373 L50 938.373 L45 935.373 Z" clip-path="url(#clipPath2)" stroke="none"/>
    </g>
  </g>
</svg>
