<?xml version="1.0" encoding="UTF-8"?><svg xmlns="http://www.w3.org/2000/svg" xmlns:xlink="http://www.w3.org/1999/xlink" fill-opacity="1" color-rendering="auto" color-interpolation="auto" text-rendering="auto" stroke="black" stroke-linecap="square" width="720" stroke-miterlimit="10" shape-rendering="auto" stroke-opacity="1" fill="black" stroke-dasharray="none" font-weight="normal" stroke-width="1" height="1389" font-family="'Dialog'" font-style="normal" stroke-linejoin="miter" font-size="12px" stroke-dashoffset="0" image-rendering="auto">
  <!--Generated by ySVG 2.5-->
  <defs id="genericDefs"/>
  <g>
    <g fill="white" text-rendering="geometricPrecision" shape-rendering="geometricPrecision" transform="translate(15,15)" stroke="white">
      <rect x="-15" width="720" height="1389" y="-15" clip-path="url(#clipPath2)" stroke="none"/>
    </g>
    <g fill="url(#linearGradient1)" text-rendering="geometricPrecision" shape-rendering="geometricPrecision" transform="matrix(1,0,0,1,15,15)" stroke="url(#linearGradient1)">
      <circle r="20" clip-path="url(#clipPath2)" cx="495" cy="20" stroke="none"/>
    </g>
    <g text-rendering="geometricPrecision" stroke-miterlimit="1.45" shape-rendering="geometricPrecision" transform="matrix(1,0,0,1,15,15)" stroke-linecap="butt">
      <circle fill="none" r="20" clip-path="url(#clipPath2)" cx="495" cy="20"/>
      <text x="483" xml:space="preserve" y="24.7139" clip-path="url(#clipPath2)" font-family="sans-serif" stroke="none">開始</text>
    </g>
    <g fill="url(#linearGradient2)" text-rendering="geometricPrecision" shape-rendering="geometricPrecision" transform="matrix(1,0,0,1,15,15)" stroke="url(#linearGradient2)">
      <rect x="455" y="1318.7012" clip-path="url(#clipPath2)" width="80" rx="20" ry="20" height="40" stroke="none"/>
    </g>
    <g text-rendering="geometricPrecision" stroke-miterlimit="1.45" shape-rendering="geometricPrecision" transform="matrix(1,0,0,1,15,15)" stroke-linecap="butt">
      <rect x="455" y="1318.7012" clip-path="url(#clipPath2)" fill="none" width="80" rx="20" ry="20" height="40"/>
      <text x="483" xml:space="preserve" y="1343.415" clip-path="url(#clipPath2)" font-family="sans-serif" stroke="none">結束</text>
    </g>
    <g fill="url(#linearGradient3)" text-rendering="geometricPrecision" shape-rendering="geometricPrecision" transform="matrix(1,0,0,1,15,15)" stroke="url(#linearGradient3)">
      <path d="M455 70 L535 70 L535 110 L455 110 Z" stroke="none" clip-path="url(#clipPath2)"/>
    </g>
    <g text-rendering="geometricPrecision" stroke-miterlimit="1.45" shape-rendering="geometricPrecision" transform="matrix(1,0,0,1,15,15)" stroke-linecap="butt">
      <path fill="none" d="M455 70 L535 70 L535 110 L455 110 Z" clip-path="url(#clipPath2)"/>
      <text x="465" xml:space="preserve" y="94.7139" clip-path="url(#clipPath2)" font-family="sans-serif" stroke="none">原始碼比對</text>
    </g>
    <g fill="url(#linearGradient4)" text-rendering="geometricPrecision" shape-rendering="geometricPrecision" transform="matrix(1,0,0,1,15,15)" stroke="url(#linearGradient4)">
      <path d="M610 140 L690 140 L690 175 Q670 165 650 175 Q630 185 610 175 Z" stroke="none" clip-path="url(#clipPath2)"/>
    </g>
    <g text-rendering="geometricPrecision" stroke-miterlimit="1.45" shape-rendering="geometricPrecision" transform="matrix(1,0,0,1,15,15)" stroke-linecap="butt">
      <path fill="none" d="M610 140 L690 140 L690 175 Q670 165 650 175 Q630 185 610 175 Z" clip-path="url(#clipPath2)"/>
      <text x="626.668" xml:space="preserve" y="157.3633" clip-path="url(#clipPath2)" font-family="sans-serif" stroke="none">TFS分支</text>
      <text x="626" xml:space="preserve" y="172.0645" clip-path="url(#clipPath2)" font-family="sans-serif" stroke="none">差異比較</text>
    </g>
    <g fill="url(#linearGradient5)" text-rendering="geometricPrecision" shape-rendering="geometricPrecision" transform="matrix(1,0,0,1,15,15)" stroke="url(#linearGradient5)">
      <path d="M345 848.7012 L425 848.7012 L425 888.7012 L345 888.7012 Z" stroke="none" clip-path="url(#clipPath2)"/>
    </g>
    <g text-rendering="geometricPrecision" stroke-miterlimit="1.45" shape-rendering="geometricPrecision" transform="matrix(1,0,0,1,15,15)" stroke-linecap="butt">
      <path fill="none" d="M345 848.7012 L425 848.7012 L425 888.7012 L345 888.7012 Z" clip-path="url(#clipPath2)"/>
      <text x="373" xml:space="preserve" y="873.415" clip-path="url(#clipPath2)" font-family="sans-serif" stroke="none">測試</text>
    </g>
    <g fill="url(#linearGradient6)" text-rendering="geometricPrecision" shape-rendering="geometricPrecision" transform="matrix(1,0,0,1,15,15)" stroke="url(#linearGradient6)">
      <path d="M385 948.7012 L425 968.7012 L385 988.7012 L345 968.7012 Z" stroke="none" clip-path="url(#clipPath2)"/>
    </g>
    <g text-rendering="geometricPrecision" stroke-miterlimit="1.45" shape-rendering="geometricPrecision" transform="matrix(1,0,0,1,15,15)" stroke-linecap="butt">
      <path fill="none" d="M385 948.7012 L425 968.7012 L385 988.7012 L345 968.7012 Z" clip-path="url(#clipPath2)"/>
      <text x="373" xml:space="preserve" y="973.415" clip-path="url(#clipPath2)" font-family="sans-serif" stroke="none">異常</text>
    </g>
    <g fill="url(#linearGradient7)" text-rendering="geometricPrecision" shape-rendering="geometricPrecision" transform="matrix(1,0,0,1,15,15)" stroke="url(#linearGradient7)">
      <path d="M345 1048.7012 L425 1048.7012 L425 1088.7012 L345 1088.7012 Z" stroke="none" clip-path="url(#clipPath2)"/>
    </g>
    <g text-rendering="geometricPrecision" stroke-miterlimit="1.45" shape-rendering="geometricPrecision" transform="matrix(1,0,0,1,15,15)" stroke-linecap="butt">
      <path fill="none" d="M345 1048.7012 L425 1048.7012 L425 1088.7012 L345 1088.7012 Z" clip-path="url(#clipPath2)"/>
      <text x="373" xml:space="preserve" y="1073.415" clip-path="url(#clipPath2)" font-family="sans-serif" stroke="none">退版</text>
    </g>
    <g fill="url(#linearGradient8)" text-rendering="geometricPrecision" shape-rendering="geometricPrecision" transform="matrix(1,0,0,1,15,15)" stroke="url(#linearGradient8)">
      <path d="M455 1148.7012 L535 1148.7012 L535 1188.7012 L455 1188.7012 Z" stroke="none" clip-path="url(#clipPath2)"/>
    </g>
    <g text-rendering="geometricPrecision" stroke-miterlimit="1.45" shape-rendering="geometricPrecision" transform="matrix(1,0,0,1,15,15)" stroke-linecap="butt">
      <path fill="none" d="M455 1148.7012 L535 1148.7012 L535 1188.7012 L455 1188.7012 Z" clip-path="url(#clipPath2)"/>
      <text x="483" xml:space="preserve" y="1173.415" clip-path="url(#clipPath2)" font-family="sans-serif" stroke="none">通知</text>
    </g>
    <g fill="url(#linearGradient9)" text-rendering="geometricPrecision" shape-rendering="geometricPrecision" transform="matrix(1,0,0,1,15,15)" stroke="url(#linearGradient9)">
      <path d="M455 140 L535 140 L535 180 L455 180 Z" stroke="none" clip-path="url(#clipPath2)"/>
    </g>
    <g text-rendering="geometricPrecision" stroke-miterlimit="1.45" shape-rendering="geometricPrecision" transform="matrix(1,0,0,1,15,15)" stroke-linecap="butt">
      <path fill="none" d="M455 140 L535 140 L535 180 L455 180 Z" clip-path="url(#clipPath2)"/>
      <text x="459" xml:space="preserve" y="164.7139" clip-path="url(#clipPath2)" font-family="sans-serif" stroke="none">簽出發行分支</text>
    </g>
    <g fill="url(#linearGradient10)" text-rendering="geometricPrecision" shape-rendering="geometricPrecision" transform="matrix(1,0,0,1,15,15)" stroke="url(#linearGradient10)">
      <path d="M125 310 L205 310 L205 345 Q185 335 165 345 Q145 355 125 345 Z" stroke="none" clip-path="url(#clipPath2)"/>
    </g>
    <g text-rendering="geometricPrecision" stroke-miterlimit="1.45" shape-rendering="geometricPrecision" transform="matrix(1,0,0,1,15,15)" stroke-linecap="butt">
      <path fill="none" d="M125 310 L205 310 L205 345 Q185 335 165 345 Q145 355 125 345 Z" clip-path="url(#clipPath2)"/>
      <text x="135" xml:space="preserve" y="334.7139" clip-path="url(#clipPath2)" font-family="sans-serif" stroke="none">編譯紀錄單</text>
    </g>
    <g text-rendering="geometricPrecision" shape-rendering="geometricPrecision" transform="matrix(1.4743,0,0,1.4523,579.7767,295)">
      <g clip-path="url(#clipPath3)">
        <svg xmlns:svg="http://www.w3.org/2000/svg" xmlns:sodipodi="http://sodipodi.sourceforge.net/DTD/sodipodi-0.dtd" xmlns:inkscape="http://www.inkscape.org/namespaces/inkscape" xmlns:dc="http://purl.org/dc/elements/1.1/" xmlns:cc="http://web.resource.org/cc/" xmlns:rdf="http://www.w3.org/1999/02/22-rdf-syntax-ns#" opacity="1" writing-mode="lr-tb" stop-color="rgb(0, 0, 0)" shape-rendering="auto" glyph-orientation-horizontal="0deg" color-profile="auto" lighting-color="rgb(255, 255, 255)" color="rgb(0, 0, 0)" font-weight="400" alignment-baseline="auto" font-style="normal" version="1.0" color-interpolation-filters="linearrgb" text-anchor="start" stroke-linecap="butt" color-interpolation="srgb" font-variant="normal" word-spacing="normal" fill-opacity="1" text-rendering="auto" clip-path="none" text-decoration="none" letter-spacing="normal" glyph-orientation-vertical="auto" display="inline" font-size-adjust="none" overflow="hidden" fill="rgb(0, 0, 0)" font-stretch="normal" stroke-dasharray="none" inkscape:version="0.45.1" id="svg1.svg2" stroke-miterlimit="4" stop-opacity="1" color-rendering="auto" font-size="12" sodipodi:docbase="C:\Daten\alberts\projects\yfx" pointer-events="visiblepainted" mask="none" direction="ltr" baseline-shift="baseline" sodipodi:docname="uml_actor.svg" enable-background="accumulate" fill-rule="nonzero" image-rendering="auto" stroke-dashoffset="0" inkscape:output_extension="org.inkscape.output.svg.inkscape" marker-end="none" width="41" clip="auto" cursor="auto" stroke="none" filter="none" visibility="visible" kerning="auto" stroke-width="1" font-family="&quot;Arial&quot;,&quot;Helvetica&quot;,sans-serif" flood-opacity="1" clip-rule="nonzero" src="none" height="68.997391" unicode-bidi="normal" sodipodi:version="0.32" stroke-linejoin="miter" stroke-opacity="1" flood-color="rgb(0, 0, 0)" dominant-baseline="auto" marker-start="none" marker-mid="none">
            
          <defs id="svg1.defs4">
            <linearGradient x1="455" gradientUnits="userSpaceOnUse" x2="535" y1="0" y2="40" id="linearGradient1" spreadMethod="reflect">
              <stop stop-opacity="1" stop-color="rgb(232,238,247)" offset="0%"/>
              <stop stop-opacity="1" stop-color="rgb(183,201,227)" offset="100%"/>
            </linearGradient>
            <linearGradient x1="455" gradientUnits="userSpaceOnUse" x2="535" y1="1318.7012" y2="1358.7012" id="linearGradient2" spreadMethod="reflect">
              <stop stop-opacity="1" stop-color="rgb(232,238,247)" offset="0%"/>
              <stop stop-opacity="1" stop-color="rgb(183,201,227)" offset="100%"/>
            </linearGradient>
            <linearGradient x1="455" gradientUnits="userSpaceOnUse" x2="535" y1="70" y2="110" id="linearGradient3" spreadMethod="reflect">
              <stop stop-opacity="1" stop-color="rgb(232,238,247)" offset="0%"/>
              <stop stop-opacity="1" stop-color="rgb(183,201,227)" offset="100%"/>
            </linearGradient>
            <linearGradient x1="610" gradientUnits="userSpaceOnUse" x2="690" y1="140" y2="180" id="linearGradient4" spreadMethod="reflect">
              <stop stop-opacity="1" stop-color="rgb(232,238,247)" offset="0%"/>
              <stop stop-opacity="1" stop-color="rgb(183,201,227)" offset="100%"/>
            </linearGradient>
            <linearGradient x1="345" gradientUnits="userSpaceOnUse" x2="425" y1="848.7012" y2="888.7012" id="linearGradient5" spreadMethod="reflect">
              <stop stop-opacity="1" stop-color="rgb(232,238,247)" offset="0%"/>
              <stop stop-opacity="1" stop-color="rgb(183,201,227)" offset="100%"/>
            </linearGradient>
            <linearGradient x1="345" gradientUnits="userSpaceOnUse" x2="425" y1="948.7012" y2="988.7012" id="linearGradient6" spreadMethod="reflect">
              <stop stop-opacity="1" stop-color="rgb(232,238,247)" offset="0%"/>
              <stop stop-opacity="1" stop-color="rgb(183,201,227)" offset="100%"/>
            </linearGradient>
            <linearGradient x1="345" gradientUnits="userSpaceOnUse" x2="425" y1="1048.7012" y2="1088.7012" id="linearGradient7" spreadMethod="reflect">
              <stop stop-opacity="1" stop-color="rgb(232,238,247)" offset="0%"/>
              <stop stop-opacity="1" stop-color="rgb(183,201,227)" offset="100%"/>
            </linearGradient>
            <linearGradient x1="455" gradientUnits="userSpaceOnUse" x2="535" y1="1148.7012" y2="1188.7012" id="linearGradient8" spreadMethod="reflect">
              <stop stop-opacity="1" stop-color="rgb(232,238,247)" offset="0%"/>
              <stop stop-opacity="1" stop-color="rgb(183,201,227)" offset="100%"/>
            </linearGradient>
            <linearGradient x1="455" gradientUnits="userSpaceOnUse" x2="535" y1="140" y2="180" id="linearGradient9" spreadMethod="reflect">
              <stop stop-opacity="1" stop-color="rgb(232,238,247)" offset="0%"/>
              <stop stop-opacity="1" stop-color="rgb(183,201,227)" offset="100%"/>
            </linearGradient>
            <linearGradient x1="125" gradientUnits="userSpaceOnUse" x2="205" y1="310" y2="350" id="linearGradient10" spreadMethod="reflect">
              <stop stop-opacity="1" stop-color="rgb(232,238,247)" offset="0%"/>
              <stop stop-opacity="1" stop-color="rgb(183,201,227)" offset="100%"/>
            </linearGradient>
            <linearGradient x1="125" gradientUnits="userSpaceOnUse" x2="205" y1="568.7012" y2="608.7012" id="linearGradient11" spreadMethod="reflect">
              <stop stop-opacity="1" stop-color="rgb(232,238,247)" offset="0%"/>
              <stop stop-opacity="1" stop-color="rgb(183,201,227)" offset="100%"/>
            </linearGradient>
            <linearGradient x1="235" gradientUnits="userSpaceOnUse" x2="315" y1="638.7012" y2="678.7012" id="linearGradient12" spreadMethod="reflect">
              <stop stop-opacity="1" stop-color="rgb(232,238,247)" offset="0%"/>
              <stop stop-opacity="1" stop-color="rgb(183,201,227)" offset="100%"/>
            </linearGradient>
            <linearGradient x1="125" gradientUnits="userSpaceOnUse" x2="205" y1="708.7012" y2="748.7012" id="linearGradient13" spreadMethod="reflect">
              <stop stop-opacity="1" stop-color="rgb(232,238,247)" offset="0%"/>
              <stop stop-opacity="1" stop-color="rgb(183,201,227)" offset="100%"/>
            </linearGradient>
            <linearGradient x1="125" gradientUnits="userSpaceOnUse" x2="205" y1="638.7012" y2="678.7012" id="linearGradient14" spreadMethod="reflect">
              <stop stop-opacity="1" stop-color="rgb(232,238,247)" offset="0%"/>
              <stop stop-opacity="1" stop-color="rgb(183,201,227)" offset="100%"/>
            </linearGradient>
            <linearGradient x1="125" gradientUnits="userSpaceOnUse" x2="205" y1="778.7012" y2="818.7012" id="linearGradient15" spreadMethod="reflect">
              <stop stop-opacity="1" stop-color="rgb(232,238,247)" offset="0%"/>
              <stop stop-opacity="1" stop-color="rgb(183,201,227)" offset="100%"/>
            </linearGradient>
            <linearGradient x1="15" gradientUnits="userSpaceOnUse" x2="95" y1="778.7012" y2="818.7012" id="linearGradient16" spreadMethod="reflect">
              <stop stop-opacity="1" stop-color="rgb(232,238,247)" offset="0%"/>
              <stop stop-opacity="1" stop-color="rgb(183,201,227)" offset="100%"/>
            </linearGradient>
            <linearGradient x1="235" gradientUnits="userSpaceOnUse" x2="315" y1="848.7012" y2="888.7012" id="linearGradient17" spreadMethod="reflect">
              <stop stop-opacity="1" stop-color="rgb(232,238,247)" offset="0%"/>
              <stop stop-opacity="1" stop-color="rgb(183,201,227)" offset="100%"/>
            </linearGradient>
            <linearGradient x1="455" gradientUnits="userSpaceOnUse" x2="535" y1="1248.7012" y2="1288.7012" id="linearGradient18" spreadMethod="reflect">
              <stop stop-opacity="1" stop-color="rgb(232,238,247)" offset="0%"/>
              <stop stop-opacity="1" stop-color="rgb(183,201,227)" offset="100%"/>
            </linearGradient>
            <linearGradient x1="345" gradientUnits="userSpaceOnUse" x2="425" y1="310" y2="350" id="linearGradient19" spreadMethod="reflect">
              <stop stop-opacity="1" stop-color="rgb(232,238,247)" offset="0%"/>
              <stop stop-opacity="1" stop-color="rgb(183,201,227)" offset="100%"/>
            </linearGradient>
            <linearGradient x1="235" gradientUnits="userSpaceOnUse" x2="315" y1="568.7012" y2="608.7012" id="linearGradient20" spreadMethod="reflect">
              <stop stop-opacity="1" stop-color="rgb(232,238,247)" offset="0%"/>
              <stop stop-opacity="1" stop-color="rgb(183,201,227)" offset="100%"/>
            </linearGradient>
            <linearGradient x1="455" gradientUnits="userSpaceOnUse" x2="535" y1="210" y2="250" id="linearGradient21" spreadMethod="reflect">
              <stop stop-opacity="1" stop-color="rgb(232,238,247)" offset="0%"/>
              <stop stop-opacity="1" stop-color="rgb(183,201,227)" offset="100%"/>
            </linearGradient>
            <linearGradient x1="455" gradientUnits="userSpaceOnUse" x2="535" y1="310" y2="350" id="linearGradient22" spreadMethod="reflect">
              <stop stop-opacity="1" stop-color="rgb(232,238,247)" offset="0%"/>
              <stop stop-opacity="1" stop-color="rgb(183,201,227)" offset="100%"/>
            </linearGradient>
            <linearGradient x1="455" gradientUnits="userSpaceOnUse" x2="535" y1="568.7012" y2="608.7012" id="linearGradient23" spreadMethod="reflect">
              <stop stop-opacity="1" stop-color="rgb(232,238,247)" offset="0%"/>
              <stop stop-opacity="1" stop-color="rgb(183,201,227)" offset="100%"/>
            </linearGradient>
            <linearGradient x1="125" gradientUnits="userSpaceOnUse" x2="205" y1="410" y2="450" id="linearGradient24" spreadMethod="reflect">
              <stop stop-opacity="1" stop-color="rgb(232,238,247)" offset="0%"/>
              <stop stop-opacity="1" stop-color="rgb(183,201,227)" offset="100%"/>
            </linearGradient>
            <linearGradient x1="125" gradientUnits="userSpaceOnUse" x2="205" y1="480" y2="520" id="linearGradient25" spreadMethod="reflect">
              <stop stop-opacity="1" stop-color="rgb(232,238,247)" offset="0%"/>
              <stop stop-opacity="1" stop-color="rgb(183,201,227)" offset="100%"/>
            </linearGradient>
            <clipPath clipPathUnits="userSpaceOnUse" id="clipPath1">
              <path d="M0 0 L720 0 L720 1389 L0 1389 L0 0 Z"/>
            </clipPath>
            <clipPath clipPathUnits="userSpaceOnUse" id="clipPath2">
              <path d="M-15 -15 L705 -15 L705 1374 L-15 1374 L-15 -15 Z"/>
            </clipPath>
            <clipPath clipPathUnits="userSpaceOnUse" id="clipPath3">
              <path d="M-393.2534 -203.1249 L95.1113 -203.1249 L95.1113 753.2836 L-393.2534 753.2836 L-393.2534 -203.1249 Z"/>
            </clipPath>
            <clipPath clipPathUnits="userSpaceOnUse" id="clipPath4">
              <path d="M-101.5912 -780.6202 L386.7735 -780.6202 L386.7735 175.7883 L-101.5912 175.7883 L-101.5912 -780.6202 Z"/>
            </clipPath>
            <clipPath clipPathUnits="userSpaceOnUse" id="clipPath5">
              <path d="M-176.2025 -642.9084 L312.1623 -642.9084 L312.1623 313.5001 L-176.2025 313.5001 L-176.2025 -642.9084 Z"/>
            </clipPath>
          </defs>
            
  
          <metadata id="svg1.metadata7">
    
  </metadata>
            
          <g inkscape:groupmode="layer" id="svg1.layer1" transform="translate(-29.5,-42.959476)" inkscape:label="Ebene 1">
                
            <a id="svg1.a3142" transform="matrix(1.0873906,0,0,1,-4.4741999,0)">
                    
              <path transform="translate(11.586889,5.2908993)" style="fill:none;fill-rule:evenodd;stroke:#000000;stroke-width:1px;stroke-linecap:butt;stroke-linejoin:miter;stroke-opacity:1" sodipodi:cx="38.509369" sodipodi:cy="47.36993" sodipodi:rx="8.5197716" id="svg1.path2160" d="M 47.02914 47.36993 A 8.5197716 9.2013531 0 1 1  29.989597,47.36993 A 8.5197716 9.2013531 0 1 1  47.02914 47.36993 z" sodipodi:ry="9.2013531" sodipodi:type="arc"/>
                  
            </a>
                
            <path style="fill:none" sodipodi:cx="43.962021" sodipodi:cy="48.392303" d="M 47.71072 48.392303 A 3.7486994 0 0 1 1  40.213321,48.392303 A 3.7486994 0 0 1 1  47.71072 48.392303 z" id="svg1.path3134" sodipodi:rx="3.7486994" sodipodi:ry="0" sodipodi:type="arc"/>
                
            <path style="fill:none;fill-rule:evenodd;stroke:#000000;stroke-width:1.24319649px;stroke-linecap:butt;stroke-linejoin:miter;stroke-opacity:1" d="M 50,61.33709 C 50,91.363211 50,92.247838 50,92.247838" id="svg1.path3136"/>
                
            <path style="fill:none;fill-rule:evenodd;stroke:#000000;stroke-width:1px;stroke-linecap:butt;stroke-linejoin:miter;stroke-opacity:1" d="M 69.760668,72.362183 C 69.760668,72.362183 69.760668,72.362183 50.239332,72.362183 C 30.239332,72.362183 30.239332,72.362183 30.239332,72.362183 L 30.239332,72.362183" id="svg1.path3138"/>
                
            <path style="fill:none;fill-rule:evenodd;stroke:#000000;stroke-width:1px;stroke-linecap:butt;stroke-linejoin:miter;stroke-opacity:1" d="M 30,111.45687 C 30,111.45687 30,111.45687 50,92.013532 C 70,111.45687 70,111.45687 70,111.45687" id="svg1.path3140"/>
              
          </g>
          
        </svg>
      </g>
    </g>
    <g font-size="13px" stroke-linecap="butt" transform="matrix(1,0,0,1,15,15)" text-rendering="geometricPrecision" font-family="sans-serif" shape-rendering="geometricPrecision" stroke-miterlimit="1.45">
      <text x="582" xml:space="preserve" y="335.1067" clip-path="url(#clipPath2)" stroke="none">資安</text>
    </g>
    <g text-rendering="geometricPrecision" shape-rendering="geometricPrecision" transform="matrix(1.4743,0,0,1.4523,149.7767,1133.7012)">
      <g clip-path="url(#clipPath4)">
        <svg xmlns:svg="http://www.w3.org/2000/svg" xmlns:sodipodi="http://sodipodi.sourceforge.net/DTD/sodipodi-0.dtd" xmlns:inkscape="http://www.inkscape.org/namespaces/inkscape" xmlns:dc="http://purl.org/dc/elements/1.1/" xmlns:cc="http://web.resource.org/cc/" xmlns:rdf="http://www.w3.org/1999/02/22-rdf-syntax-ns#" opacity="1" writing-mode="lr-tb" stop-color="rgb(0, 0, 0)" shape-rendering="auto" glyph-orientation-horizontal="0deg" color-profile="auto" lighting-color="rgb(255, 255, 255)" color="rgb(0, 0, 0)" font-weight="400" alignment-baseline="auto" font-style="normal" version="1.0" color-interpolation-filters="linearrgb" text-anchor="start" stroke-linecap="butt" color-interpolation="srgb" font-variant="normal" word-spacing="normal" fill-opacity="1" text-rendering="auto" clip-path="none" text-decoration="none" letter-spacing="normal" glyph-orientation-vertical="auto" display="inline" font-size-adjust="none" overflow="hidden" fill="rgb(0, 0, 0)" font-stretch="normal" stroke-dasharray="none" inkscape:version="0.45.1" id="svg2.svg2" stroke-miterlimit="4" stop-opacity="1" color-rendering="auto" font-size="12" sodipodi:docbase="C:\Daten\alberts\projects\yfx" pointer-events="visiblepainted" mask="none" direction="ltr" baseline-shift="baseline" sodipodi:docname="uml_actor.svg" enable-background="accumulate" fill-rule="nonzero" image-rendering="auto" stroke-dashoffset="0" inkscape:output_extension="org.inkscape.output.svg.inkscape" marker-end="none" width="41" clip="auto" cursor="auto" stroke="none" filter="none" visibility="visible" kerning="auto" stroke-width="1" font-family="&quot;Arial&quot;,&quot;Helvetica&quot;,sans-serif" flood-opacity="1" clip-rule="nonzero" src="none" height="68.997391" unicode-bidi="normal" sodipodi:version="0.32" stroke-linejoin="miter" stroke-opacity="1" flood-color="rgb(0, 0, 0)" dominant-baseline="auto" marker-start="none" marker-mid="none">
            
          <defs id="svg2.defs4"/>
            
  
          <metadata id="svg2.metadata7">
    
  </metadata>
            
          <g inkscape:groupmode="layer" id="svg2.layer1" transform="translate(-29.5,-42.959476)" inkscape:label="Ebene 1">
                
            <a id="svg2.a3142" transform="matrix(1.0873906,0,0,1,-4.4741999,0)">
                    
              <path transform="translate(11.586889,5.2908993)" style="fill:none;fill-rule:evenodd;stroke:#000000;stroke-width:1px;stroke-linecap:butt;stroke-linejoin:miter;stroke-opacity:1" sodipodi:cx="38.509369" sodipodi:cy="47.36993" sodipodi:rx="8.5197716" id="svg2.path2160" d="M 47.02914 47.36993 A 8.5197716 9.2013531 0 1 1  29.989597,47.36993 A 8.5197716 9.2013531 0 1 1  47.02914 47.36993 z" sodipodi:ry="9.2013531" sodipodi:type="arc"/>
                  
            </a>
                
            <path style="fill:none" sodipodi:cx="43.962021" sodipodi:cy="48.392303" d="M 47.71072 48.392303 A 3.7486994 0 0 1 1  40.213321,48.392303 A 3.7486994 0 0 1 1  47.71072 48.392303 z" id="svg2.path3134" sodipodi:rx="3.7486994" sodipodi:ry="0" sodipodi:type="arc"/>
                
            <path style="fill:none;fill-rule:evenodd;stroke:#000000;stroke-width:1.24319649px;stroke-linecap:butt;stroke-linejoin:miter;stroke-opacity:1" d="M 50,61.33709 C 50,91.363211 50,92.247838 50,92.247838" id="svg2.path3136"/>
                
            <path style="fill:none;fill-rule:evenodd;stroke:#000000;stroke-width:1px;stroke-linecap:butt;stroke-linejoin:miter;stroke-opacity:1" d="M 69.760668,72.362183 C 69.760668,72.362183 69.760668,72.362183 50.239332,72.362183 C 30.239332,72.362183 30.239332,72.362183 30.239332,72.362183 L 30.239332,72.362183" id="svg2.path3138"/>
                
            <path style="fill:none;fill-rule:evenodd;stroke:#000000;stroke-width:1px;stroke-linecap:butt;stroke-linejoin:miter;stroke-opacity:1" d="M 30,111.45687 C 30,111.45687 30,111.45687 50,92.013532 C 70,111.45687 70,111.45687 70,111.45687" id="svg2.path3140"/>
              
          </g>
          
        </svg>
      </g>
    </g>
    <g font-size="13px" stroke-linecap="butt" transform="matrix(1,0,0,1,15,15)" text-rendering="geometricPrecision" font-family="sans-serif" shape-rendering="geometricPrecision" stroke-miterlimit="1.45">
      <text x="152" xml:space="preserve" y="1173.8079" clip-path="url(#clipPath2)" stroke="none">系統</text>
    </g>
    <g fill="url(#linearGradient11)" text-rendering="geometricPrecision" shape-rendering="geometricPrecision" transform="matrix(1,0,0,1,15,15)" stroke="url(#linearGradient11)">
      <path d="M125 568.7012 L205 568.7012 L205 608.7012 L125 608.7012 Z" stroke="none" clip-path="url(#clipPath2)"/>
    </g>
    <g text-rendering="geometricPrecision" stroke-miterlimit="1.45" shape-rendering="geometricPrecision" transform="matrix(1,0,0,1,15,15)" stroke-linecap="butt">
      <path fill="none" d="M125 568.7012 L205 568.7012 L205 608.7012 L125 608.7012 Z" clip-path="url(#clipPath2)"/>
      <text x="129" xml:space="preserve" y="593.415" clip-path="url(#clipPath2)" font-family="sans-serif" stroke="none">異動檔案比對</text>
    </g>
    <g fill="url(#linearGradient12)" text-rendering="geometricPrecision" shape-rendering="geometricPrecision" transform="matrix(1,0,0,1,15,15)" stroke="url(#linearGradient12)">
      <path d="M235 638.7012 L315 638.7012 L315 673.7012 Q295 663.7012 275 673.7012 Q255 683.7012 235 673.7012 Z" stroke="none" clip-path="url(#clipPath2)"/>
    </g>
    <g text-rendering="geometricPrecision" stroke-miterlimit="1.45" shape-rendering="geometricPrecision" transform="matrix(1,0,0,1,15,15)" stroke-linecap="butt">
      <path fill="none" d="M235 638.7012 L315 638.7012 L315 673.7012 Q295 663.7012 275 673.7012 Q255 683.7012 235 673.7012 Z" clip-path="url(#clipPath2)"/>
      <text x="239" xml:space="preserve" y="663.415" clip-path="url(#clipPath2)" font-family="sans-serif" stroke="none">檔案差異記錄</text>
    </g>
    <g fill="url(#linearGradient13)" text-rendering="geometricPrecision" shape-rendering="geometricPrecision" transform="matrix(1,0,0,1,15,15)" stroke="url(#linearGradient13)">
      <path d="M125 708.7012 L205 708.7012 L205 748.7012 L125 748.7012 Z" stroke="none" clip-path="url(#clipPath2)"/>
    </g>
    <g text-rendering="geometricPrecision" stroke-miterlimit="1.45" shape-rendering="geometricPrecision" transform="matrix(1,0,0,1,15,15)" stroke-linecap="butt">
      <path fill="none" d="M125 708.7012 L205 708.7012 L205 748.7012 L125 748.7012 Z" clip-path="url(#clipPath2)"/>
      <text x="153" xml:space="preserve" y="733.415" clip-path="url(#clipPath2)" font-family="sans-serif" stroke="none">更版</text>
    </g>
    <g fill="url(#linearGradient14)" text-rendering="geometricPrecision" shape-rendering="geometricPrecision" transform="matrix(1,0,0,1,15,15)" stroke="url(#linearGradient14)">
      <path d="M125 638.7012 L205 638.7012 L205 678.7012 L125 678.7012 Z" stroke="none" clip-path="url(#clipPath2)"/>
    </g>
    <g text-rendering="geometricPrecision" stroke-miterlimit="1.45" shape-rendering="geometricPrecision" transform="matrix(1,0,0,1,15,15)" stroke-linecap="butt">
      <path fill="none" d="M125 638.7012 L205 638.7012 L205 678.7012 L125 678.7012 Z" clip-path="url(#clipPath2)"/>
      <text x="135" xml:space="preserve" y="663.415" clip-path="url(#clipPath2)" font-family="sans-serif" stroke="none">正式機備份</text>
    </g>
    <g fill="url(#linearGradient15)" text-rendering="geometricPrecision" shape-rendering="geometricPrecision" transform="matrix(1,0,0,1,15,15)" stroke="url(#linearGradient15)">
      <path d="M125 778.7012 L205 778.7012 L205 818.7012 L125 818.7012 Z" stroke="none" clip-path="url(#clipPath2)"/>
    </g>
    <g text-rendering="geometricPrecision" stroke-miterlimit="1.45" shape-rendering="geometricPrecision" transform="matrix(1,0,0,1,15,15)" stroke-linecap="butt">
      <path fill="none" d="M125 778.7012 L205 778.7012 L205 818.7012 L125 818.7012 Z" clip-path="url(#clipPath2)"/>
      <text x="141" xml:space="preserve" y="803.415" clip-path="url(#clipPath2)" font-family="sans-serif" stroke="none">通知測試</text>
    </g>
    <g fill="url(#linearGradient16)" text-rendering="geometricPrecision" shape-rendering="geometricPrecision" transform="matrix(1,0,0,1,15,15)" stroke="url(#linearGradient16)">
      <rect x="15" width="80" height="40" y="778.7012" clip-path="url(#clipPath2)" stroke="none"/>
    </g>
    <g text-rendering="geometricPrecision" stroke-miterlimit="1.45" shape-rendering="geometricPrecision" transform="matrix(1,0,0,1,15,15)" stroke-linecap="butt">
      <path fill="none" d="M85 778.7012 L95 778.7012 L95 818.7012 L85 818.7012" clip-path="url(#clipPath2)"/>
      <text x="37" xml:space="preserve" y="796.0645" clip-path="url(#clipPath2)" font-family="sans-serif" stroke="none">使用者</text>
      <text x="37" xml:space="preserve" y="810.7656" clip-path="url(#clipPath2)" font-family="sans-serif" stroke="none">開發者</text>
    </g>
    <g fill="url(#linearGradient17)" text-rendering="geometricPrecision" shape-rendering="geometricPrecision" transform="matrix(1,0,0,1,15,15)" stroke="url(#linearGradient17)">
      <rect x="235" width="80" height="40" y="848.7012" clip-path="url(#clipPath2)" stroke="none"/>
    </g>
    <g text-rendering="geometricPrecision" stroke-miterlimit="1.45" shape-rendering="geometricPrecision" transform="matrix(1,0,0,1,15,15)" stroke-linecap="butt">
      <path fill="none" d="M305 848.7012 L315 848.7012 L315 888.7012 L305 888.7012" clip-path="url(#clipPath2)"/>
      <text x="245" xml:space="preserve" y="866.0645" clip-path="url(#clipPath2)" font-family="sans-serif" stroke="none">更版人員亦</text>
      <text x="257" xml:space="preserve" y="880.7656" clip-path="url(#clipPath2)" font-family="sans-serif" stroke="none">需測試</text>
    </g>
    <g text-rendering="geometricPrecision" shape-rendering="geometricPrecision" transform="matrix(1.4743,0,0,1.4523,259.7767,933.7012)">
      <g clip-path="url(#clipPath5)">
        <svg xmlns:svg="http://www.w3.org/2000/svg" xmlns:sodipodi="http://sodipodi.sourceforge.net/DTD/sodipodi-0.dtd" xmlns:inkscape="http://www.inkscape.org/namespaces/inkscape" xmlns:dc="http://purl.org/dc/elements/1.1/" xmlns:cc="http://web.resource.org/cc/" xmlns:rdf="http://www.w3.org/1999/02/22-rdf-syntax-ns#" opacity="1" writing-mode="lr-tb" stop-color="rgb(0, 0, 0)" shape-rendering="auto" glyph-orientation-horizontal="0deg" color-profile="auto" lighting-color="rgb(255, 255, 255)" color="rgb(0, 0, 0)" font-weight="400" alignment-baseline="auto" font-style="normal" version="1.0" color-interpolation-filters="linearrgb" text-anchor="start" stroke-linecap="butt" color-interpolation="srgb" font-variant="normal" word-spacing="normal" fill-opacity="1" text-rendering="auto" clip-path="none" text-decoration="none" letter-spacing="normal" glyph-orientation-vertical="auto" display="inline" font-size-adjust="none" overflow="hidden" fill="rgb(0, 0, 0)" font-stretch="normal" stroke-dasharray="none" inkscape:version="0.45.1" id="svg3.svg2" stroke-miterlimit="4" stop-opacity="1" color-rendering="auto" font-size="12" sodipodi:docbase="C:\Daten\alberts\projects\yfx" pointer-events="visiblepainted" mask="none" direction="ltr" baseline-shift="baseline" sodipodi:docname="uml_actor.svg" enable-background="accumulate" fill-rule="nonzero" image-rendering="auto" stroke-dashoffset="0" inkscape:output_extension="org.inkscape.output.svg.inkscape" marker-end="none" width="41" clip="auto" cursor="auto" stroke="none" filter="none" visibility="visible" kerning="auto" stroke-width="1" font-family="&quot;Arial&quot;,&quot;Helvetica&quot;,sans-serif" flood-opacity="1" clip-rule="nonzero" src="none" height="68.997391" unicode-bidi="normal" sodipodi:version="0.32" stroke-linejoin="miter" stroke-opacity="1" flood-color="rgb(0, 0, 0)" dominant-baseline="auto" marker-start="none" marker-mid="none">
            
          <defs id="svg3.defs4"/>
            
  
          <metadata id="svg3.metadata7">
    
  </metadata>
            
          <g inkscape:groupmode="layer" id="svg3.layer1" transform="translate(-29.5,-42.959476)" inkscape:label="Ebene 1">
                
            <a id="svg3.a3142" transform="matrix(1.0873906,0,0,1,-4.4741999,0)">
                    
              <path transform="translate(11.586889,5.2908993)" style="fill:none;fill-rule:evenodd;stroke:#000000;stroke-width:1px;stroke-linecap:butt;stroke-linejoin:miter;stroke-opacity:1" sodipodi:cx="38.509369" sodipodi:cy="47.36993" sodipodi:rx="8.5197716" id="svg3.path2160" d="M 47.02914 47.36993 A 8.5197716 9.2013531 0 1 1  29.989597,47.36993 A 8.5197716 9.2013531 0 1 1  47.02914 47.36993 z" sodipodi:ry="9.2013531" sodipodi:type="arc"/>
                  
            </a>
                
            <path style="fill:none" sodipodi:cx="43.962021" sodipodi:cy="48.392303" d="M 47.71072 48.392303 A 3.7486994 0 0 1 1  40.213321,48.392303 A 3.7486994 0 0 1 1  47.71072 48.392303 z" id="svg3.path3134" sodipodi:rx="3.7486994" sodipodi:ry="0" sodipodi:type="arc"/>
                
            <path style="fill:none;fill-rule:evenodd;stroke:#000000;stroke-width:1.24319649px;stroke-linecap:butt;stroke-linejoin:miter;stroke-opacity:1" d="M 50,61.33709 C 50,91.363211 50,92.247838 50,92.247838" id="svg3.path3136"/>
                
            <path style="fill:none;fill-rule:evenodd;stroke:#000000;stroke-width:1px;stroke-linecap:butt;stroke-linejoin:miter;stroke-opacity:1" d="M 69.760668,72.362183 C 69.760668,72.362183 69.760668,72.362183 50.239332,72.362183 C 30.239332,72.362183 30.239332,72.362183 30.239332,72.362183 L 30.239332,72.362183" id="svg3.path3138"/>
                
            <path style="fill:none;fill-rule:evenodd;stroke:#000000;stroke-width:1px;stroke-linecap:butt;stroke-linejoin:miter;stroke-opacity:1" d="M 30,111.45687 C 30,111.45687 30,111.45687 50,92.013532 C 70,111.45687 70,111.45687 70,111.45687" id="svg3.path3140"/>
              
          </g>
          
        </svg>
      </g>
    </g>
    <g font-size="13px" stroke-linecap="butt" transform="matrix(1,0,0,1,15,15)" text-rendering="geometricPrecision" font-family="sans-serif" shape-rendering="geometricPrecision" stroke-miterlimit="1.45">
      <text x="249" xml:space="preserve" y="973.8079" clip-path="url(#clipPath2)" stroke="none">需求單位</text>
    </g>
    <g fill="url(#linearGradient18)" text-rendering="geometricPrecision" shape-rendering="geometricPrecision" transform="matrix(1,0,0,1,15,15)" stroke="url(#linearGradient18)">
      <rect x="455" width="80" height="40" y="1248.7012" clip-path="url(#clipPath2)" stroke="none"/>
    </g>
    <g text-rendering="geometricPrecision" stroke-miterlimit="1.45" shape-rendering="geometricPrecision" transform="matrix(1,0,0,1,15,15)" stroke-linecap="butt">
      <rect fill="none" x="455" width="80" height="40" y="1248.7012" clip-path="url(#clipPath2)"/>
      <path fill="none" d="M465 1248.7012 L465 1288.7012 M525 1248.7012 L525 1288.7012 M465 1248.7012 Z" clip-path="url(#clipPath2)"/>
      <text x="471" xml:space="preserve" y="1266.0645" clip-path="url(#clipPath2)" font-family="sans-serif" stroke="none">後續處理</text>
      <text x="483" xml:space="preserve" y="1280.7656" clip-path="url(#clipPath2)" font-family="sans-serif" stroke="none">流程</text>
    </g>
    <g fill="url(#linearGradient19)" text-rendering="geometricPrecision" shape-rendering="geometricPrecision" transform="matrix(1,0,0,1,15,15)" stroke="url(#linearGradient19)">
      <path d="M345 310 L425 310 L425 345 Q405 335 385 345 Q365 355 345 345 Z" stroke="none" clip-path="url(#clipPath2)"/>
    </g>
    <g text-rendering="geometricPrecision" stroke-miterlimit="1.45" shape-rendering="geometricPrecision" transform="matrix(1,0,0,1,15,15)" stroke-linecap="butt">
      <path fill="none" d="M345 310 L425 310 L425 345 Q405 335 385 345 Q365 355 345 345 Z" clip-path="url(#clipPath2)"/>
      <text x="367" xml:space="preserve" y="327.3633" clip-path="url(#clipPath2)" font-family="sans-serif" stroke="none">原始碼</text>
      <text x="361" xml:space="preserve" y="342.0645" clip-path="url(#clipPath2)" font-family="sans-serif" stroke="none">掃描報告</text>
    </g>
    <g fill="url(#linearGradient20)" text-rendering="geometricPrecision" shape-rendering="geometricPrecision" transform="matrix(1,0,0,1,15,15)" stroke="url(#linearGradient20)">
      <rect x="235" width="80" height="40" y="568.7012" clip-path="url(#clipPath2)" stroke="none"/>
    </g>
    <g text-rendering="geometricPrecision" stroke-miterlimit="1.45" shape-rendering="geometricPrecision" transform="matrix(1,0,0,1,15,15)" stroke-linecap="butt">
      <path fill="none" d="M245 568.7012 L235 568.7012 L235 608.7012 L245 608.7012" clip-path="url(#clipPath2)"/>
      <text x="239" xml:space="preserve" y="593.415" clip-path="url(#clipPath2)" font-family="sans-serif" stroke="none">UAT差異比對</text>
    </g>
    <g fill="url(#linearGradient21)" text-rendering="geometricPrecision" shape-rendering="geometricPrecision" transform="matrix(1,0,0,1,15,15)" stroke="url(#linearGradient21)">
      <path d="M455 210 L535 210 L535 250 L455 250 Z" stroke="none" clip-path="url(#clipPath2)"/>
    </g>
    <g text-rendering="geometricPrecision" stroke-miterlimit="1.45" shape-rendering="geometricPrecision" transform="matrix(1,0,0,1,15,15)" stroke-linecap="butt">
      <path fill="none" d="M455 210 L535 210 L535 250 L455 250 Z" clip-path="url(#clipPath2)"/>
      <text x="465" xml:space="preserve" y="234.7139" clip-path="url(#clipPath2)" font-family="sans-serif" stroke="none">原始碼掃描</text>
    </g>
    <g fill="url(#linearGradient22)" text-rendering="geometricPrecision" shape-rendering="geometricPrecision" transform="matrix(1,0,0,1,15,15)" stroke="url(#linearGradient22)">
      <path d="M495 310 L535 330 L495 350 L455 330 Z" stroke="none" clip-path="url(#clipPath2)"/>
    </g>
    <g text-rendering="geometricPrecision" stroke-miterlimit="1.45" shape-rendering="geometricPrecision" transform="matrix(1,0,0,1,15,15)" stroke-linecap="butt">
      <path fill="none" d="M495 310 L535 330 L495 350 L455 330 Z" clip-path="url(#clipPath2)"/>
      <text x="471" xml:space="preserve" y="334.7139" clip-path="url(#clipPath2)" font-family="sans-serif" stroke="none">驗證通過</text>
    </g>
    <g fill="url(#linearGradient23)" text-rendering="geometricPrecision" shape-rendering="geometricPrecision" transform="matrix(1,0,0,1,15,15)" stroke="url(#linearGradient23)">
      <path d="M455 568.7012 L535 568.7012 L535 608.7012 L455 608.7012 Z" stroke="none" clip-path="url(#clipPath2)"/>
    </g>
    <g text-rendering="geometricPrecision" stroke-miterlimit="1.45" shape-rendering="geometricPrecision" transform="matrix(1,0,0,1,15,15)" stroke-linecap="butt">
      <path fill="none" d="M455 568.7012 L535 568.7012 L535 608.7012 L455 608.7012 Z" clip-path="url(#clipPath2)"/>
      <text x="471" xml:space="preserve" y="593.415" clip-path="url(#clipPath2)" font-family="sans-serif" stroke="none">拒絕更版</text>
    </g>
    <g fill="url(#linearGradient24)" text-rendering="geometricPrecision" shape-rendering="geometricPrecision" transform="matrix(1,0,0,1,15,15)" stroke="url(#linearGradient24)">
      <path d="M125 410 L205 410 L205 450 L125 450 Z" stroke="none" clip-path="url(#clipPath2)"/>
    </g>
    <g text-rendering="geometricPrecision" stroke-miterlimit="1.45" shape-rendering="geometricPrecision" transform="matrix(1,0,0,1,15,15)" stroke-linecap="butt">
      <path fill="none" d="M125 410 L205 410 L205 450 L125 450 Z" clip-path="url(#clipPath2)"/>
      <text x="153" xml:space="preserve" y="427.3633" clip-path="url(#clipPath2)" font-family="sans-serif" stroke="none">核驗</text>
      <text x="135" xml:space="preserve" y="442.0645" clip-path="url(#clipPath2)" font-family="sans-serif" stroke="none">編譯記錄單</text>
    </g>
    <g fill="url(#linearGradient25)" text-rendering="geometricPrecision" shape-rendering="geometricPrecision" transform="matrix(1,0,0,1,15,15)" stroke="url(#linearGradient25)">
      <path d="M165 480 L205 500 L165 520 L125 500 Z" stroke="none" clip-path="url(#clipPath2)"/>
    </g>
    <g text-rendering="geometricPrecision" stroke-miterlimit="1.45" shape-rendering="geometricPrecision" transform="matrix(1,0,0,1,15,15)" stroke-linecap="butt">
      <path fill="none" d="M165 480 L205 500 L165 520 L125 500 Z" clip-path="url(#clipPath2)"/>
      <text x="141" xml:space="preserve" y="504.7139" clip-path="url(#clipPath2)" font-family="sans-serif" stroke="none">驗證通過</text>
    </g>
    <g text-rendering="geometricPrecision" stroke-miterlimit="1.45" shape-rendering="geometricPrecision" transform="matrix(1,0,0,1,15,15)" stroke-linecap="butt">
      <path fill="none" d="M495 40 L495 61.9707" clip-path="url(#clipPath2)"/>
    </g>
    <g text-rendering="geometricPrecision" stroke-miterlimit="1.45" shape-rendering="geometricPrecision" transform="matrix(1,0,0,1,15,15)" stroke-linecap="butt">
      <path d="M495 69.9707 L500 57.9707 L495 60.9707 L490 57.9707 Z" stroke="none" clip-path="url(#clipPath2)"/>
      <path fill="none" d="M535 90 L650 90 L650 139.9512" clip-path="url(#clipPath2)"/>
      <path fill="none" d="M385 888.7012 L385 940.7012" clip-path="url(#clipPath2)"/>
      <path d="M385 948.7012 L390 936.7012 L385 939.7012 L380 936.7012 Z" clip-path="url(#clipPath2)" stroke="none"/>
      <path fill="none" d="M385 988.7012 L385 1040.6719" clip-path="url(#clipPath2)"/>
      <path d="M385 1048.6719 L390 1036.6719 L385 1039.6719 L380 1036.6719 Z" clip-path="url(#clipPath2)" stroke="none"/>
      <text x="372.9961" xml:space="preserve" y="1012.8906" clip-path="url(#clipPath2)" font-family="sans-serif" stroke="none">Y</text>
      <path fill="none" d="M425 1068.7012 L495 1068.7012 L495 1140.6621" clip-path="url(#clipPath2)"/>
      <path d="M495 1148.6621 L500 1136.6621 L495 1139.6621 L490 1136.6621 Z" clip-path="url(#clipPath2)" stroke="none"/>
      <path fill="none" d="M425 968.7012 L495 968.7012 L495 1140.6572" clip-path="url(#clipPath2)"/>
      <path d="M495 1148.6572 L500 1136.6572 L495 1139.6572 L490 1136.6572 Z" clip-path="url(#clipPath2)" stroke="none"/>
      <text x="437.125" xml:space="preserve" y="962.0645" clip-path="url(#clipPath2)" font-family="sans-serif" stroke="none">N</text>
      <path fill="none" d="M495 110 L495 131.9707" clip-path="url(#clipPath2)"/>
      <path d="M495 139.9707 L500 127.9707 L495 130.9707 L490 127.9707 Z" clip-path="url(#clipPath2)" stroke="none"/>
      <path fill="none" stroke-dasharray="12,4" d="M521.6667 110 L521.6667 125 L595 125 L595 279.9622" stroke-width="2" clip-path="url(#clipPath2)"/>
      <path fill="none" stroke-dasharray="12,4" d="M385 1088.7012 L385 1168.7012 L195.0464 1168.7012" stroke-width="2" clip-path="url(#clipPath2)"/>
      <path fill="none" d="M191.6667 608.7012 L191.6667 623.7012 L275 623.7012 L275 638.6719" clip-path="url(#clipPath2)"/>
      <path fill="none" d="M165 608.7012 L165 630.6719" clip-path="url(#clipPath2)"/>
      <path d="M165 638.6719 L170 626.6719 L165 629.6719 L160 626.6719 Z" clip-path="url(#clipPath2)" stroke="none"/>
      <path fill="none" d="M165 678.7012 L165 700.6719" clip-path="url(#clipPath2)"/>
      <path d="M165 708.6719 L170 696.6719 L165 699.6719 L160 696.6719 Z" clip-path="url(#clipPath2)" stroke="none"/>
      <path fill="none" d="M165 748.7012 L165 770.6719" clip-path="url(#clipPath2)"/>
      <path d="M165 778.6719 L170 766.6719 L165 769.6719 L160 766.6719 Z" clip-path="url(#clipPath2)" stroke="none"/>
      <path fill="none" d="M205 798.7012 L385 798.7012 L385 840.6523" clip-path="url(#clipPath2)"/>
      <path d="M385 848.6523 L390 836.6523 L385 839.6523 L380 836.6523 Z" clip-path="url(#clipPath2)" stroke="none"/>
      <path fill="none" stroke-dasharray="12,4" d="M165 818.7012 L165 1118.6646" stroke-width="2" clip-path="url(#clipPath2)"/>
      <path fill="none" d="M124.9707 798.7012 L95 798.7012" clip-path="url(#clipPath2)"/>
      <path fill="none" d="M344.9707 868.7012 L323 868.7012" clip-path="url(#clipPath2)"/>
      <path d="M315 868.7012 L327 873.7012 L324 868.7012 L327 863.7012 Z" clip-path="url(#clipPath2)" stroke="none"/>
      <path fill="none" stroke-dasharray="12,4" d="M358.3333 888.7012 L358.3333 903.7012 L275 903.7012 L275 918.6719" stroke-width="2" clip-path="url(#clipPath2)"/>
      <path fill="none" d="M495 1188.7012 L495 1240.6719" clip-path="url(#clipPath2)"/>
      <path d="M495 1248.6719 L500 1236.6719 L495 1239.6719 L490 1236.6719 Z" clip-path="url(#clipPath2)" stroke="none"/>
      <path fill="none" d="M495 1288.7012 L495 1310.6719" clip-path="url(#clipPath2)"/>
      <path d="M495 1318.6719 L500 1306.6719 L495 1309.6719 L490 1306.6719 Z" clip-path="url(#clipPath2)" stroke="none"/>
      <path fill="none" d="M205 588.7012 L234.9707 588.7012" clip-path="url(#clipPath2)"/>
      <path fill="none" d="M495 180 L495 201.9707" clip-path="url(#clipPath2)"/>
      <path d="M495 209.9707 L500 197.9707 L495 200.9707 L490 197.9707 Z" clip-path="url(#clipPath2)" stroke="none"/>
      <path fill="none" d="M454.9658 230 L385 230 L385 309.9609" clip-path="url(#clipPath2)"/>
      <path fill="none" stroke-dasharray="12,4" d="M535 230 L550 230 L550 330 L564.9707 330" stroke-width="2" clip-path="url(#clipPath2)"/>
      <path fill="none" d="M495 250 L495 302" clip-path="url(#clipPath2)"/>
      <path d="M495 310 L500 298 L495 301 L490 298 Z" clip-path="url(#clipPath2)" stroke="none"/>
      <path fill="none" d="M495 350 L495 560.6745" clip-path="url(#clipPath2)"/>
      <path d="M495 568.6745 L500 556.6745 L495 559.6745 L490 556.6745 Z" clip-path="url(#clipPath2)" stroke="none"/>
      <text x="482.334" xml:space="preserve" y="374.1895" clip-path="url(#clipPath2)" font-family="sans-serif" stroke="none">N</text>
      <path fill="none" d="M495 608.7012 L495 1140.6682" clip-path="url(#clipPath2)"/>
      <path d="M495 1148.6682 L500 1136.6682 L495 1139.6682 L490 1136.6682 Z" clip-path="url(#clipPath2)" stroke="none"/>
      <path fill="none" d="M454.9707 330 L440 330 L440 430 L213 430" clip-path="url(#clipPath2)"/>
      <path d="M205 430 L217 435 L214 430 L217 425 Z" clip-path="url(#clipPath2)" stroke="none"/>
      <text x="438.9355" xml:space="preserve" y="323.3633" clip-path="url(#clipPath2)" font-family="sans-serif" stroke="none">Y</text>
      <path fill="none" d="M165 345.0005 L165 409.9683" clip-path="url(#clipPath2)"/>
      <path fill="none" stroke-dasharray="12,4" d="M124.9695 430 L0 430 L0 1168.7012 L134.967 1168.7012" stroke-width="2" clip-path="url(#clipPath2)"/>
      <path fill="none" d="M165 450 L165 472" clip-path="url(#clipPath2)"/>
      <path d="M165 480 L170 468 L165 471 L160 468 Z" clip-path="url(#clipPath2)" stroke="none"/>
      <path fill="none" d="M205 500 L385 500 L385 588.7012 L446.9658 588.7012" clip-path="url(#clipPath2)"/>
      <path d="M454.9658 588.7012 L442.9658 583.7012 L445.9658 588.7012 L442.9658 593.7012 Z" clip-path="url(#clipPath2)" stroke="none"/>
      <text x="217.125" xml:space="preserve" y="493.3633" clip-path="url(#clipPath2)" font-family="sans-serif" stroke="none">N</text>
      <path fill="none" d="M165 520 L165 560.6536" clip-path="url(#clipPath2)"/>
      <path d="M165 568.6536 L170 556.6536 L165 559.6536 L160 556.6536 Z" clip-path="url(#clipPath2)" stroke="none"/>
      <text x="152.9961" xml:space="preserve" y="544.1895" clip-path="url(#clipPath2)" font-family="sans-serif" stroke="none">Y</text>
    </g>
  </g>
</svg>
